<svg xmlns="http://www.w3.org/2000/svg" xmlns:xlink="http://www.w3.org/1999/xlink" xmlns:lucid="lucid" width="1376.04" height="1642.5"><g transform="translate(-427.86469184027777 -99)" lucid:page-tab-id="FTK6_rHemi.Y"><path d="M0 0h1870.4v2582.4H0z" fill="#fff"/><path d="M952 1201.88H784c-13.25 0-24-8.96-24-20 0-11.05 10.75-20 24-20h168l48 20zM640 200c22.1 0 40 17.9 40 40s-17.9 40-40 40h-80c-22.1 0-40-17.9-40-40s17.9-40 40-40z" stroke="#000" stroke-width="3" fill="#fff"/><use xlink:href="#a" transform="matrix(1,0,0,1,525,205) translate(50.729383680555564 40.88802083333333)"/><path d="M600 400l80 60-80 60-80-60z" stroke="#000" stroke-width="3" fill="#fff"/><use xlink:href="#b" transform="matrix(1,0,0,1,525,405) translate(50.73438368055556 61.51302083333333)"/><path d="M600 283v94.5" stroke="#000" stroke-width="3" fill="none"/><path d="M601.48 283.04h-2.96v-1.54h2.96z" stroke="#000" stroke-width=".05"/><path d="M600 393.27L595.37 379h9.26z" stroke="#000" stroke-width="3"/><path d="M441.48 458.52H516v2.96h-77.48v-56.4h2.96zm137.9-117.1h-137.9v42.33h-2.96v-45.3H579.4z" stroke="#000" stroke-width=".05"/><path d="M517.5 460l1.97 1.48h-3.5v-2.96h3.5z"/><path stroke="#000" stroke-width=".05"/><path d="M595.15 339.94l-14.27 4.63v-9.27z"/><path d="M599.92 339.94l-20.5 6.66v-13.33zm-17.56 2.6l8-2.6-8-2.6z" stroke="#000" stroke-width=".05"/><use xlink:href="#c" transform="matrix(1,0,0,1,427.86469184027777,383.75194278722364) translate(0 16.825520833333325)"/><path d="M601.48 616.63h-2.96V556.6h2.96zm0-81.33h-2.96v-11.92h2.96z" stroke="#000" stroke-width=".05"/><path d="M601.48 523.4h-2.96v-2.63l1.48 1.1 1.48-1.1z"/><path stroke="#000" stroke-width=".05"/><path d="M600 632.4l-4.63-14.27h9.26z"/><path d="M600 637.17l-6.66-20.5h13.32zm-2.6-17.56l2.6 8.02 2.6-8z" stroke="#000" stroke-width=".05"/><use xlink:href="#d" transform="matrix(1,0,0,1,581.7970377604166,535.2959562356638) translate(0 16.825520833333325)"/><path d="M520 638.75h160v120H520z" stroke="#000" stroke-width="3" fill="#fff"/><use xlink:href="#e" transform="matrix(1,0,0,1,532,650.75) translate(19.458767361111136 52.82552083333333)"/><path d="M600 881.88l80 60-80 60-80-60z" stroke="#000" stroke-width="3" fill="#fff"/><use xlink:href="#f" transform="matrix(1,0,0,1,525,886.8771929824562) translate(26.463767361111135 51.20052083333333)"/><use xlink:href="#g" transform="matrix(1,0,0,1,525,886.8771929824562) translate(44.66672960069445 72.51877170138887)"/><path d="M600 761.75v97.63" stroke="#000" stroke-width="3" fill="none"/><path d="M601.48 761.8h-2.96v-1.55h2.96z" stroke="#000" stroke-width=".05"/><path d="M600 875.15l-4.63-14.27h9.26z" stroke="#000" stroke-width="3"/><path d="M441.48 940.4H516v2.95h-77.48V738.73h2.96zm137.9-342.16h-137.9V717.4h-2.96V595.3H579.4z" stroke="#000" stroke-width=".05"/><path d="M517.5 941.88l1.97 1.47h-3.5v-2.95h3.5z"/><path stroke="#000" stroke-width=".05"/><path d="M595.15 596.77l-14.27 4.63v-9.27z"/><path d="M599.92 596.77l-20.5 6.66V590.1zm-17.56 2.6l8-2.6-8-2.6z" stroke="#000" stroke-width=".05"/><use xlink:href="#c" transform="matrix(1,0,0,1,427.86469184027777,717.4132429870249) translate(0 16.825520833333325)"/><path d="M601.48 1099.76h-2.96v-27.04h2.96zm0-48.35h-2.96v-46.15h2.96z" stroke="#000" stroke-width=".05"/><path d="M601.48 1005.3h-2.96v-2.65l1.48 1.1 1.48-1.1z"/><path stroke="#000" stroke-width=".05"/><path d="M600 1115.52l-4.63-14.26h9.26z"/><path d="M600 1120.3l-6.66-20.52h13.32zm-2.6-17.57l2.6 8.02 2.6-8.02z" stroke="#000" stroke-width=".05"/><use xlink:href="#d" transform="matrix(1,0,0,1,581.7970377604166,1051.4055675484283) translate(0 16.825520833333325)"/><path d="M520 1121.88h160v120H520z" stroke="#000" stroke-width="3" fill="#fff"/><use xlink:href="#h" transform="matrix(1,0,0,1,532,1133.877192982456) translate(43.729383680555564 52.82552083333333)"/><path d="M520 1359h160v120H520z" stroke="#000" stroke-width="3" fill="#fff"/><use xlink:href="#i" transform="matrix(1,0,0,1,532,1371) translate(37.66172960069446 52.82552083333333)"/><path d="M683 1181.88h54.88" stroke="#000" stroke-width="3" fill="none"/><path d="M683.04 1183.35h-1.54v-2.95h1.54z" stroke="#000" stroke-width=".05"/><path d="M753.64 1181.88l-14.26 4.63v-9.26z" stroke="#000" stroke-width="3"/><path d="M683 1419h54.88" stroke="#000" stroke-width="3" fill="none"/><path d="M683.04 1420.47h-1.54v-2.94h1.54z" stroke="#000" stroke-width=".05"/><path d="M753.64 1419l-14.26 4.63v-9.27z" stroke="#000" stroke-width="3"/><path d="M780 1161.88h100v40H780z" stroke="#000" stroke-opacity="0" stroke-width="3" fill="#fff" fill-opacity="0"/><use xlink:href="#j" transform="matrix(1,0,0,1,785,1166.877192982456) translate(0 21.16639539930555)"/><path d="M952 1439H784c-13.25 0-24-8.95-24-20s10.75-20 24-20h168l48 20z" stroke="#000" stroke-width="3" fill="#fff"/><path d="M780 1399h100v40H780z" stroke="#000" stroke-opacity="0" stroke-width="3" fill="#fff" fill-opacity="0"/><use xlink:href="#k" transform="matrix(1,0,0,1,785,1404) translate(0 21.16639539930555)"/><path d="M952 961.88H784c-13.26 0-24-8.96-24-20 0-11.05 10.74-20 24-20h168l48 20z" stroke="#000" stroke-width="3" fill="#fff"/><path d="M682.5 941.88H737.88M682.54 941.88H681" stroke="#000" stroke-width="3" fill="none"/><path d="M753.64 941.88l-14.26 4.63v-9.26z" stroke="#000" stroke-width="3"/><path d="M780 921.88h100v40H780z" stroke="#000" stroke-opacity="0" stroke-width="3" fill="#fff" fill-opacity="0"/><use xlink:href="#l" transform="matrix(1,0,0,1,785,926.8771929824562) translate(0 21.16639539930555)"/><path d="M952 698.75H784c-13.26 0-24-8.95-24-20s10.74-20 24-20h168l48 20z" stroke="#000" stroke-width="3" fill="#fff"/><path d="M682.5 678.75H737.88M682.54 678.75H681" stroke="#000" stroke-width="3" fill="none"/><path d="M753.64 678.75l-14.26 4.63v-9.26z" stroke="#000" stroke-width="3"/><path d="M780 658.75h180v40H780z" stroke="#000" stroke-opacity="0" stroke-width="3" fill="#fff" fill-opacity="0"/><use xlink:href="#m" transform="matrix(1,0,0,1,785,663.75) translate(0 21.16639539930555)"/><path d="M952 738.75H784c-13.26 0-24-8.95-24-20s10.74-20 24-20h168l48 20z" stroke="#000" stroke-width="3" fill="#fff"/><path d="M682.5 718.75H737.88M682.54 718.75H681" stroke="#000" stroke-width="3" fill="none"/><path d="M753.64 718.75l-14.26 4.63v-9.26z" stroke="#000" stroke-width="3"/><path d="M780 698.75h180v40H780z" stroke="#000" stroke-opacity="0" stroke-width="3" fill="#fff" fill-opacity="0"/><use xlink:href="#n" transform="matrix(1,0,0,1,785,703.75) translate(0 21.16639539930555)"/><path d="M600 1244.88v92" stroke="#000" stroke-width="3" fill="none"/><path d="M601.48 1244.92h-2.96v-1.54h2.96z" stroke="#000" stroke-width=".05"/><path d="M600 1352.65l-4.63-14.27h9.26z" stroke="#000" stroke-width="3"/><path d="M952 480H784c-13.26 0-24-8.95-24-20s10.74-20 24-20h168l48 20z" stroke="#000" stroke-width="3" fill="#fff"/><path d="M682.5 460h55.38M682.54 460H681" stroke="#000" stroke-width="3" fill="none"/><path d="M753.64 460l-14.26 4.63v-9.26z" stroke="#000" stroke-width="3"/><path d="M780 440h180v40H780z" stroke="#000" stroke-opacity="0" stroke-width="3" fill="#fff" fill-opacity="0"/><use xlink:href="#o" transform="matrix(1,0,0,1,785,445) translate(0 20.575520833333325)"/><path d="M600 1600l80 60-80 60-80-60z" stroke="#000" stroke-width="3" fill="#fff"/><use xlink:href="#p" transform="matrix(1,0,0,1,525,1605) translate(50.73438368055556 30.835520833333327)"/><use xlink:href="#q" transform="matrix(1,0,0,1,525,1605) translate(38.59907552083335 52.15377170138888)"/><use xlink:href="#r" transform="matrix(1,0,0,1,525,1605) translate(99.27561631944444 52.15377170138888)"/><use xlink:href="#s" transform="matrix(1,0,0,1,525,1605) translate(44.66672960069445 73.47202256944442)"/><use xlink:href="#t" transform="matrix(1,0,0,1,525,1605) translate(56.802037760416674 94.79027343749996)"/><path d="M600 1482v95.5" stroke="#000" stroke-width="3" fill="none"/><path d="M601.48 1482.04h-2.96v-1.54h2.96z" stroke="#000" stroke-width=".05"/><path d="M600 1593.27l-4.63-14.26h9.26z" stroke="#000" stroke-width="3"/><path d="M441.48 1658.53H516v2.94h-77.48v-311.5h2.96zm0-329.87h-2.96V942.64h2.96z" stroke="#000" stroke-width=".05"/><path d="M517.5 1660l1.97 1.47h-3.5v-2.94h3.5z"/><path stroke="#000" stroke-width=".05"/><path d="M441.48 942.68h-2.96v-1.54h2.96z" stroke="#000" stroke-width=".05"/><use xlink:href="#c" transform="matrix(1,0,0,1,427.86469184027777,1328.6616887347616) translate(0 16.825520833333325)"/><path d="M723.98 1661.47H684v-2.94h37.02v-50.63H724zm0-74.9H721v-46.12h-100.4v-2.95h103.36z" stroke="#000" stroke-width=".05"/><path d="M684.04 1661.47h-3.5l1.96-1.47-1.97-1.47h3.5z"/><path stroke="#000" stroke-width=".05"/><path d="M619.12 1543.6l-14.27-4.63 14.27-4.63z"/><path d="M620.6 1545.64l-20.52-6.67 20.5-6.66zm-10.97-6.67l8 2.6v-5.2z" stroke="#000" stroke-width=".05"/><use xlink:href="#d" transform="matrix(1,0,0,1,704.2970377604166,1586.5817506929866) translate(0 16.825520833333325)"/><path d="M1752 1201.88h-168c-13.26 0-24-8.96-24-20 0-11.05 10.74-20 24-20h168l48 20zM1440 200c22.1 0 40 17.9 40 40s-17.9 40-40 40h-80c-22.1 0-40-17.9-40-40s17.9-40 40-40z" stroke="#000" stroke-width="3" fill="#fff"/><use xlink:href="#a" transform="matrix(1,0,0,1,1325,205) translate(50.729383680555564 40.88802083333333)"/><path d="M1320 400h160v120h-160z" stroke="#000" stroke-width="3" fill="#fff"/><use xlink:href="#u" transform="matrix(1,0,0,1,1325,405) translate(32.526421440972236 61.51302083333333)"/><use xlink:href="#v" transform="matrix(1,0,0,1,1325,405) translate(81.06765407986111 61.51302083333333)"/><path d="M1400 283v94.88" stroke="#000" stroke-width="3" fill="none"/><path d="M1401.47 283.04h-2.94v-1.54h2.94z" stroke="#000" stroke-width=".05"/><path d="M1400 393.65l-4.63-14.27h9.27z" stroke="#000" stroke-width="3"/><path d="M1320 638.75h160v120h-160z" stroke="#000" stroke-width="3" fill="#fff"/><use xlink:href="#e" transform="matrix(1,0,0,1,1332,650.75) translate(19.458767361111136 52.82552083333333)"/><path d="M1400 881.88l80 60-80 60-80-60z" stroke="#000" stroke-width="3" fill="#fff"/><use xlink:href="#f" transform="matrix(1,0,0,1,1325,886.8771929824563) translate(26.463767361111135 51.20052083333333)"/><use xlink:href="#g" transform="matrix(1,0,0,1,1325,886.8771929824563) translate(44.66672960069445 72.51877170138887)"/><path d="M1400 761.75v97.63" stroke="#000" stroke-width="3" fill="none"/><path d="M1401.47 761.8h-2.94v-1.55h2.94z" stroke="#000" stroke-width=".05"/><path d="M1400 875.15l-4.63-14.27h9.27z" stroke="#000" stroke-width="3"/><path d="M1241.47 940.4H1316v2.95h-77.47V738.67h2.94zm137.9-342.3h-137.9v119.25h-2.94v-122.2h140.85z" stroke="#000" stroke-width=".05"/><path d="M1317.5 941.88l1.97 1.47h-3.5v-2.95h3.5z"/><path stroke="#000" stroke-width=".05"/><path d="M1395.15 596.64l-14.27 4.63V592z"/><path d="M1399.92 596.64l-20.52 6.66v-13.33zm-17.57 2.6l8.02-2.6-8-2.6z" stroke="#000" stroke-width=".05"/><use xlink:href="#c" transform="matrix(1,0,0,1,1227.8646918402778,717.3474535133407) translate(0 16.825520833333325)"/><path d="M1401.47 1099.76h-2.94v-27.04h2.94zm0-48.35h-2.94v-46.15h2.94z" stroke="#000" stroke-width=".05"/><path d="M1401.47 1005.3h-2.94v-2.65l1.47 1.1 1.47-1.1z"/><path stroke="#000" stroke-width=".05"/><path d="M1400 1115.52l-4.63-14.26h9.27z"/><path d="M1400 1120.3l-6.66-20.52h13.33zm-2.6-17.57l2.6 8.02 2.6-8.02z" stroke="#000" stroke-width=".05"/><use xlink:href="#d" transform="matrix(1,0,0,1,1381.7970377604167,1051.4055675484283) translate(0 16.825520833333325)"/><path d="M1320 1121.88h160v120h-160z" stroke="#000" stroke-width="3" fill="#fff"/><use xlink:href="#h" transform="matrix(1,0,0,1,1332,1133.877192982456) translate(43.729383680555564 52.82552083333333)"/><path d="M1320 1359h160v120h-160z" stroke="#000" stroke-width="3" fill="#fff"/><use xlink:href="#i" transform="matrix(1,0,0,1,1332,1370.9999999999998) translate(37.66172960069446 52.82552083333333)"/><path d="M1483 1181.88H1537.88" stroke="#000" stroke-width="3" fill="none"/><path d="M1483.04 1183.35h-1.54v-2.95h1.54z" stroke="#000" stroke-width=".05"/><path d="M1553.64 1181.88l-14.26 4.63v-9.26z" stroke="#000" stroke-width="3"/><path d="M1483 1440H1537.88" stroke="#000" stroke-width="3" fill="none"/><path d="M1483.04 1441.47h-1.54v-2.94h1.54z" stroke="#000" stroke-width=".05"/><path d="M1553.64 1440l-14.26 4.63v-9.27z" stroke="#000" stroke-width="3"/><path d="M1580 1161.88h100v40h-100z" stroke="#000" stroke-opacity="0" stroke-width="3" fill="#fff" fill-opacity="0"/><use xlink:href="#w" transform="matrix(1,0,0,1,1585,1166.877192982456) translate(0 21.16639539930555)"/><path d="M1752 1460h-168c-13.25 0-24-8.95-24-20s10.75-20 24-20h168l48 20z" stroke="#000" stroke-width="3" fill="#fff"/><path d="M1580 1420h100v40h-100z" stroke="#000" stroke-opacity="0" stroke-width="3" fill="#fff" fill-opacity="0"/><use xlink:href="#x" transform="matrix(1,0,0,1,1585.0000000000002,1424.9999999999998) translate(0 21.16639539930555)"/><path d="M1752 961.88h-168c-13.26 0-24-8.96-24-20 0-11.05 10.74-20 24-20h168l48 20z" stroke="#000" stroke-width="3" fill="#fff"/><path d="M1482.5 941.88h55.38M1482.54 941.88H1481" stroke="#000" stroke-width="3" fill="none"/><path d="M1553.64 941.88l-14.26 4.63v-9.26z" stroke="#000" stroke-width="3"/><path d="M1580 921.88h100v40h-100z" stroke="#000" stroke-opacity="0" stroke-width="3" fill="#fff" fill-opacity="0"/><use xlink:href="#y" transform="matrix(1,0,0,1,1585,926.8771929824563) translate(0 21.16639539930555)"/><path d="M1751 696.87h-168c-13.26 0-24-8.95-24-20 0-11.04 10.74-20 24-20h168l48 20z" stroke="#000" stroke-width="3" fill="#fff"/><path d="M1481.5 676.87h55.38M1481.54 676.87H1480" stroke="#000" stroke-width="3" fill="none"/><path d="M1552.64 676.87l-14.26 4.64v-9.26z" stroke="#000" stroke-width="3"/><path d="M1579 656.87h180v40h-180z" stroke="#000" stroke-opacity="0" stroke-width="3" fill="#fff" fill-opacity="0"/><use xlink:href="#z" transform="matrix(1,0,0,1,1584,661.8728070175434) translate(0 21.16639539930555)"/><path d="M1400 1244.88v92" stroke="#000" stroke-width="3" fill="none"/><path d="M1401.47 1244.92h-2.94v-1.54h2.94z" stroke="#000" stroke-width=".05"/><path d="M1400 1352.65l-4.63-14.27h9.27z" stroke="#000" stroke-width="3"/><path d="M1400 1600l80 60-80 60-80-60z" stroke="#000" stroke-width="3" fill="#fff"/><use xlink:href="#A" transform="matrix(1,0,0,1,1325,1604.9999999999998) translate(38.59907552083335 47.76302083333333)"/><use xlink:href="#r" transform="matrix(1,0,0,1,1325,1604.9999999999998) translate(99.27561631944444 47.76302083333333)"/><use xlink:href="#B" transform="matrix(1,0,0,1,1325,1604.9999999999998) translate(20.39611328125002 69.08127170138887)"/><use xlink:href="#t" transform="matrix(1,0,0,1,1325,1604.9999999999998) translate(93.20796223958332 69.08127170138887)"/><path d="M1400 1482v95.5" stroke="#000" stroke-width="3" fill="none"/><path d="M1401.47 1482.04h-2.94v-1.54h2.94z" stroke="#000" stroke-width=".05"/><path d="M1400 1593.27l-4.63-14.26h9.27z" stroke="#000" stroke-width="3"/><path d="M1241.47 1658.53H1316v2.94h-77.47v-311.5h2.94zm0-329.88h-2.94V942.62h2.94z" stroke="#000" stroke-width=".05"/><path d="M1317.5 1660l1.97 1.47h-3.5v-2.94h3.5z"/><path stroke="#000" stroke-width=".05"/><path d="M1241.47 942.66h-2.94v-1.54h2.94z" stroke="#000" stroke-width=".05"/><use xlink:href="#c" transform="matrix(1,0,0,1,1227.8646918402778,1328.6528542147205) translate(0 16.825520833333325)"/><path d="M1523.97 1661.47H1484v-2.94h37.03v-50.63h2.94zm0-74.9h-2.94v-46.12h-100.4v-2.95h103.34z" stroke="#000" stroke-width=".05"/><path d="M1484.04 1661.47h-3.5l1.96-1.47-1.97-1.47h3.5z"/><path stroke="#000" stroke-width=".05"/><path d="M1419.12 1543.6l-14.27-4.63 14.27-4.63z"/><path d="M1420.6 1545.64l-20.52-6.67 20.52-6.66zm-10.97-6.67l8 2.6v-5.2z" stroke="#000" stroke-width=".05"/><use xlink:href="#d" transform="matrix(1,0,0,1,1504.2970377604167,1586.5817506929864) translate(0 16.825520833333325)"/><path d="M1400 522.5v96.25" stroke="#000" stroke-width="2" fill="none"/><path d="M1400.97 522.53h-1.94v-1.03h1.94z" stroke="#000" stroke-width=".05"/><path d="M1400 634l-4.63-14.25h9.27z" stroke="#000" stroke-width="2"/><path d="M1483 1400H1537.88M1483.04 1400h-1.54" stroke="#000" stroke-width="3" fill="none"/><path d="M1553.64 1400l-14.26 4.63v-9.27z" stroke="#000" stroke-width="3"/><path d="M1752 1420h-168c-13.25 0-24-8.95-24-20s10.75-20 24-20h168l48 20z" stroke="#000" stroke-width="3" fill="#fff"/><path d="M1580 1380h100v40h-100z" stroke="#000" stroke-opacity="0" stroke-width="3" fill="#fff" fill-opacity="0"/><use xlink:href="#C" transform="matrix(1,0,0,1,1585.0000000000002,1384.9999999999998) translate(0 21.16639539930555)"/><path d="M480 100h240v60H480z" stroke="#000" stroke-opacity="0" stroke-width="2" fill="#fff" fill-opacity="0"/><use xlink:href="#D" transform="matrix(1,0,0,1,485,105) translate(77.39388020833334 35.44531249999999)"/><path d="M1280 100h240v60h-240z" stroke="#000" stroke-opacity="0" stroke-width="2" fill="#fff" fill-opacity="0"/><use xlink:href="#E" transform="matrix(1,0,0,1,1285,105) translate(77.39388020833334 35.44531249999999)"/><path d="M1751 738.75h-168c-13.25 0-24-8.95-24-20s10.75-20 24-20h168l48 20z" stroke="#000" stroke-width="3" fill="#fff"/><path d="M1481.5 718.75h55.38M1481.54 718.75H1480" stroke="#000" stroke-width="3" fill="none"/><path d="M1552.64 718.75l-14.26 4.63v-9.26z" stroke="#000" stroke-width="3"/><path d="M1579 698.75h180v40h-180z" stroke="#000" stroke-opacity="0" stroke-width="3" fill="#fff" fill-opacity="0"/><g><use xlink:href="#F" transform="matrix(1,0,0,1,1584.0000000000005,703.75) translate(0 21.16639539930555)"/></g><path d="M1440.5 1693v27h97.38" stroke="#000" stroke-width="3" fill="none"/><path d="M1442 1693.03h-2.96v-.43l2.95-2.22z" stroke="#000" stroke-width=".05"/><path d="M1553.64 1720l-14.26 4.63v-9.27z" stroke="#000" stroke-width="3"/><g><path d="M1752 1740h-168c-13.25 0-24-8.95-24-20s10.75-20 24-20h168l48 20z" stroke="#000" stroke-width="3" fill="#fff"/></g><path d="M1580 1700h100v40h-100z" stroke="#000" stroke-opacity="0" stroke-width="3" fill="#fff" fill-opacity="0"/><g><use xlink:href="#G" transform="matrix(1,0,0,1,1585.0000000000002,1705) translate(0 21.16639539930555)"/></g><defs><path d="M202-1349h823v156H709v1037h316V0H202v-156h316v-1037H202v-156" id="H"/><path d="M706-1102c241 0 344 136 343 381V0H868v-695c1-168-57-273-220-268-190 6-283 138-283 336V0H185c-3-360 6-732-6-1082h170c4 54 7 126 8 185h3c63-121 164-204 346-205" id="I"/><path d="M745-142h380V0H143v-142h422v-798H246v-142h499v940zM545-1292v-192h200v192H545" id="J"/><path d="M682 16c-209 0-323-80-324-285v-671H190v-142h170l58-282h120v282h432v142H538v652c2 114 60 155 182 155 106 0 209-16 297-34v137C921-4 806 16 682 16" id="K"/><g id="a"><use transform="matrix(0.00987413194444444,0,0,0.00987413194444444,0,0)" xlink:href="#H"/><use transform="matrix(0.00987413194444444,0,0,0.00987413194444444,12.135308159722218,0)" xlink:href="#I"/><use transform="matrix(0.00987413194444444,0,0,0.00987413194444444,24.270616319444436,0)" xlink:href="#J"/><use transform="matrix(0.00987413194444444,0,0,0.00987413194444444,36.40592447916666,0)" xlink:href="#K"/></g><path d="M875 0v-623H353V0H162v-1349h191v566h522v-566h191V0H875" id="L"/><path d="M622-1349c296 4 497 117 497 404 0 282-193 424-485 431H353V0H162v-1349h460zm-15 684c195-3 320-88 320-277 0-184-129-255-328-254H353v531h254" id="M"/><path d="M473-1349c438-1 655 221 652 661C1122-268 945-8 532 0H162v-1349h311zm42 1193c308-4 416-205 418-532 2-330-131-509-459-505H353v1037h162" id="N"/><path d="M594-1370c273 0 479 100 479 368 0 320-313 334-421 548-13 28-20 60-21 97H456c9-310 312-328 416-543 13-27 19-59 19-94 0-165-127-226-295-226-189 0-295 102-318 272L94-960c39-259 205-410 500-410zM448 0v-201h195V0H448" id="O"/><g id="b"><use transform="matrix(0.00987413194444444,0,0,0.00987413194444444,0,0)" xlink:href="#L"/><use transform="matrix(0.00987413194444444,0,0,0.00987413194444444,12.135308159722218,0)" xlink:href="#M"/><use transform="matrix(0.00987413194444444,0,0,0.00987413194444444,24.270616319444436,0)" xlink:href="#N"/><use transform="matrix(0.00987413194444444,0,0,0.00987413194444444,36.40592447916666,0)" xlink:href="#O"/></g><path d="M912-211c-10-84-18-177-18-274v-864h172V0H836L316-1130c7 79 16 167 16 254V0H162v-1349h222" id="P"/><path d="M102-681c0-398 126-689 513-689 165 0 291 58 379 174s132 287 132 515c-1 318-88 554-298 657-123 61-317 58-438-3-206-104-288-341-288-654zm749 406c94-160 97-656-5-807-57-85-130-132-231-132-104 0-178 47-234 132-101 153-99 655 1 809 57 89 130 138 232 138 109 0 184-49 237-140" id="Q"/><g id="c"><use transform="matrix(0.00987413194444444,0,0,0.00987413194444444,0,0)" xlink:href="#P"/><use transform="matrix(0.00987413194444444,0,0,0.00987413194444444,12.135308159722218,0)" xlink:href="#Q"/></g><path d="M708-584V0H520v-584L36-1349h205l374 611 372-611h205" id="R"/><path d="M162 0v-1349h919v156H353v422h668v154H353v461h769V0H162" id="S"/><path d="M614-1226c-167 1-283 53-283 213 0 183 186 193 334 234 230 63 463 120 463 409 0 286-219 387-518 390C309 23 131-98 79-338l185-37c34 165 149 248 351 246 184-2 324-58 324-238 0-203-207-221-372-266-210-57-422-111-422-377 0-267 201-356 470-360 279-5 430 101 480 324l-188 33c-28-141-121-215-293-213" id="T"/><g id="d"><use transform="matrix(0.00987413194444444,0,0,0.00987413194444444,0,0)" xlink:href="#R"/><use transform="matrix(0.00987413194444444,0,0,0.00987413194444444,12.135308159722218,0)" xlink:href="#S"/><use transform="matrix(0.00987413194444444,0,0,0.00987413194444444,24.270616319444436,0)" xlink:href="#T"/></g><path d="M709-1193V0H519v-1193H76v-156h1076v156H709" id="U"/><path d="M839-1102c70 0 148 7 206 17v167c-112-18-268-36-363 15-129 69-208 203-208 395V0H294c-10-367 32-789-52-1082h171c21 75 41 161 48 250h5c67-152 152-270 373-270" id="V"/><path d="M1000-272c3 95 12 159 101 161 21 0 41-3 59-7V-6c-44 10-86 16-139 16-141 2-191-84-197-217h-6C748-76 648 20 446 20c-207 0-318-120-318-322 0-266 194-348 454-354l236-4c12-191-40-305-222-305-140 0-220 47-232 172l-188-17c33-204 181-292 423-292 255 0 401 118 401 364v466zm-683-27c0 109 63 184 175 182 166-3 259-96 306-217 24-65 20-120 20-200-232 7-501-28-501 235" id="W"/><path d="M1048-32c-2 300-135 456-433 456-222-1-358-88-400-267l184-25c22 99 100 157 222 156 184-2 248-125 248-315 0-64 3-133-2-194C807-100 706-13 524-12c-306 0-381-228-381-537 0-318 85-550 400-550 164 0 271 83 325 202h3c1-60 3-134 12-185h171c-13 339-4 702-6 1050zM585-145c210-8 284-178 284-406 0-192-52-331-177-392-33-16-69-22-104-22-223 2-259 184-259 414 0 229 31 415 256 406" id="X"/><g id="e"><use transform="matrix(0.00987413194444444,0,0,0.00987413194444444,0,0)" xlink:href="#U"/><use transform="matrix(0.00987413194444444,0,0,0.00987413194444444,12.135308159722218,0)" xlink:href="#V"/><use transform="matrix(0.00987413194444444,0,0,0.00987413194444444,24.270616319444436,0)" xlink:href="#W"/><use transform="matrix(0.00987413194444444,0,0,0.00987413194444444,36.40592447916666,0)" xlink:href="#J"/><use transform="matrix(0.00987413194444444,0,0,0.00987413194444444,48.54123263888887,0)" xlink:href="#I"/><use transform="matrix(0.00987413194444444,0,0,0.00987413194444444,60.676540798611086,0)" xlink:href="#J"/><use transform="matrix(0.00987413194444444,0,0,0.00987413194444444,72.8118489583333,0)" xlink:href="#I"/><use transform="matrix(0.00987413194444444,0,0,0.00987413194444444,84.94715711805553,0)" xlink:href="#X"/></g><g id="f"><use transform="matrix(0.00987413194444444,0,0,0.00987413194444444,0,0)" xlink:href="#U"/><use transform="matrix(0.00987413194444444,0,0,0.00987413194444444,12.135308159722218,0)" xlink:href="#V"/><use transform="matrix(0.00987413194444444,0,0,0.00987413194444444,24.270616319444436,0)" xlink:href="#W"/><use transform="matrix(0.00987413194444444,0,0,0.00987413194444444,36.40592447916666,0)" xlink:href="#J"/><use transform="matrix(0.00987413194444444,0,0,0.00987413194444444,48.54123263888887,0)" xlink:href="#I"/><use transform="matrix(0.00987413194444444,0,0,0.00987413194444444,60.676540798611086,0)" xlink:href="#J"/><use transform="matrix(0.00987413194444444,0,0,0.00987413194444444,72.8118489583333,0)" xlink:href="#I"/><use transform="matrix(0.00987413194444444,0,0,0.00987413194444444,84.94715711805553,0)" xlink:href="#X"/></g><path d="M873-819c-18-114-119-146-250-146-163 0-245 50-245 151 0 151 170 148 294 185 182 54 388 94 388 320 0 240-189 325-439 329-245 4-410-69-454-268l159-31c24 133 136 168 295 165 144-2 270-31 270-171 0-164-195-160-331-202-167-52-350-87-350-299 0-218 173-315 413-313 220 2 373 77 412 260" id="Y"/><g id="g"><use transform="matrix(0.00987413194444444,0,0,0.00987413194444444,0,0)" xlink:href="#M"/><use transform="matrix(0.00987413194444444,0,0,0.00987413194444444,12.135308159722218,0)" xlink:href="#W"/><use transform="matrix(0.00987413194444444,0,0,0.00987413194444444,24.270616319444436,0)" xlink:href="#Y"/><use transform="matrix(0.00987413194444444,0,0,0.00987413194444444,36.40592447916666,0)" xlink:href="#Y"/><use transform="matrix(0.00987413194444444,0,0,0.00987413194444444,48.54123263888887,0)" xlink:href="#O"/></g><path d="M237 0v-1349h191v1193h672V0H237" id="Z"/><path d="M914 0L548-499l-132 98V0H236v-1484h180v927l475-525h211L663-617 1125 0H914" id="aa"/><g id="h"><use transform="matrix(0.00987413194444444,0,0,0.00987413194444444,0,0)" xlink:href="#Z"/><use transform="matrix(0.00987413194444444,0,0,0.00987413194444444,12.135308159722218,0)" xlink:href="#J"/><use transform="matrix(0.00987413194444444,0,0,0.00987413194444444,24.270616319444436,0)" xlink:href="#I"/><use transform="matrix(0.00987413194444444,0,0,0.00987413194444444,36.40592447916666,0)" xlink:href="#aa"/></g><path d="M713 0H515L10-1349h201C345-955 498-579 615-168c116-411 269-787 402-1181h201" id="ab"/><path d="M865-914c-3-187-2-380-2-570h180v1261c0 76 1 155 6 223H877c-8-49-9-116-10-174h-5C801-44 708 26 530 26c-135 0-234-46-297-139s-95-232-95-419c0-377 131-566 392-566 176 0 271 63 335 184zm-286-51c-222 0-255 197-255 427 0 229 31 425 253 425 237 0 286-195 286-441 0-238-52-411-284-411" id="ac"/><path d="M617-1102c355 0 481 238 477 599H322c5 222 84 388 301 388 144 0 244-59 284-166l158 45C1002-72 854 20 623 20c-342 0-490-220-490-568 0-346 151-554 484-554zm291 461c-18-192-90-328-289-328-194 0-287 128-295 328h584" id="ad"/><path d="M615-1102c343 0 484 203 482 560-1 347-147 562-488 562-336 0-475-219-479-562-4-349 156-560 485-560zm-8 989c240 0 301-180 301-429 0-245-55-427-290-427-236 0-299 181-299 427 0 243 61 429 288 429" id="ae"/><g id="i"><use transform="matrix(0.00987413194444444,0,0,0.00987413194444444,0,0)" xlink:href="#ab"/><use transform="matrix(0.00987413194444444,0,0,0.00987413194444444,12.135308159722218,0)" xlink:href="#J"/><use transform="matrix(0.00987413194444444,0,0,0.00987413194444444,24.270616319444436,0)" xlink:href="#ac"/><use transform="matrix(0.00987413194444444,0,0,0.00987413194444444,36.40592447916666,0)" xlink:href="#ad"/><use transform="matrix(0.00987413194444444,0,0,0.00987413194444444,48.54123263888887,0)" xlink:href="#ae"/></g><path d="M698-1104c312 3 392 244 392 558 0 315-82 566-392 566-169 0-277-65-331-184h-5c8 188 2 394 4 589H185V-858c0-76-1-156-6-224h175c6 52 9 120 10 178h4c58-122 150-202 330-200zm-49 991c225 0 255-203 255-433 0-225-32-419-253-419-236 0-285 192-285 441 0 237 53 411 283 411" id="af"/><path d="M932 0L611-444 288 0H94l415-556-397-526h199l300 421 298-421h201L713-558 1133 0H932" id="ag"/><path d="M-5 220v-96h1238v96H-5" id="ah"/><path d="M736-142h380V0H134v-142h422v-1200H267v-142h469v1342" id="ai"/><path d="M631 20c-350 0-501-215-501-562 0-355 162-560 502-560 250 0 399 118 446 323l-192 14c-23-124-109-196-262-196-242 0-305 171-305 415 1 245 61 427 304 427 151 0 248-77 267-215l190 12C1039-107 883 20 631 20" id="aj"/><path d="M365-904c58-129 161-200 334-200 130 0 228 46 293 138s98 233 98 420c0 189-34 331-102 425S824 20 698 20c-170 0-275-64-336-184 0 55-3 116-9 164H179c5-68 6-147 6-223v-1261h180c-2 193 4 394-4 580h4zm283 791c221 0 256-197 256-427 0-229-34-425-254-425-236 0-285 195-285 441 0 237 53 411 283 411" id="ak"/><g id="j"><use transform="matrix(0.00987413194444444,0,0,0.00987413194444444,0,0)" xlink:href="#ac"/><use transform="matrix(0.00987413194444444,0,0,0.00987413194444444,12.135308159722218,0)" xlink:href="#af"/><use transform="matrix(0.00987413194444444,0,0,0.00987413194444444,24.270616319444436,0)" xlink:href="#K"/><use transform="matrix(0.00987413194444444,0,0,0.00987413194444444,36.40592447916666,0)" xlink:href="#ag"/><use transform="matrix(0.00987413194444444,0,0,0.00987413194444444,48.54123263888887,0)" xlink:href="#ah"/><use transform="matrix(0.00987413194444444,0,0,0.00987413194444444,60.676540798611086,0)" xlink:href="#ai"/><use transform="matrix(0.00987413194444444,0,0,0.00987413194444444,72.8118489583333,0)" xlink:href="#I"/><use transform="matrix(0.00987413194444444,0,0,0.00987413194444444,84.94715711805553,0)" xlink:href="#aa"/><use transform="matrix(0.00987413194444444,0,0,0.00987413194444444,97.08246527777773,0)" xlink:href="#ah"/><use transform="matrix(0.00987413194444444,0,0,0.00987413194444444,109.21777343749994,0)" xlink:href="#aj"/><use transform="matrix(0.00987413194444444,0,0,0.00987413194444444,121.35308159722216,0)" xlink:href="#ak"/></g><path d="M715 0H502L69-1082h202c94 253 197 500 285 758 19 57 36 126 52 183 96-335 234-626 350-941h201" id="al"/><g id="k"><use transform="matrix(0.00987413194444444,0,0,0.00987413194444444,0,0)" xlink:href="#ac"/><use transform="matrix(0.00987413194444444,0,0,0.00987413194444444,12.135308159722218,0)" xlink:href="#af"/><use transform="matrix(0.00987413194444444,0,0,0.00987413194444444,24.270616319444436,0)" xlink:href="#K"/><use transform="matrix(0.00987413194444444,0,0,0.00987413194444444,36.40592447916666,0)" xlink:href="#ag"/><use transform="matrix(0.00987413194444444,0,0,0.00987413194444444,48.54123263888887,0)" xlink:href="#ah"/><use transform="matrix(0.00987413194444444,0,0,0.00987413194444444,60.676540798611086,0)" xlink:href="#al"/><use transform="matrix(0.00987413194444444,0,0,0.00987413194444444,72.8118489583333,0)" xlink:href="#J"/><use transform="matrix(0.00987413194444444,0,0,0.00987413194444444,84.94715711805553,0)" xlink:href="#ac"/><use transform="matrix(0.00987413194444444,0,0,0.00987413194444444,97.08246527777773,0)" xlink:href="#ah"/><use transform="matrix(0.00987413194444444,0,0,0.00987413194444444,109.21777343749994,0)" xlink:href="#aj"/><use transform="matrix(0.00987413194444444,0,0,0.00987413194444444,121.35308159722216,0)" xlink:href="#ak"/></g><g id="l"><use transform="matrix(0.00987413194444444,0,0,0.00987413194444444,0,0)" xlink:href="#ac"/><use transform="matrix(0.00987413194444444,0,0,0.00987413194444444,12.135308159722218,0)" xlink:href="#af"/><use transform="matrix(0.00987413194444444,0,0,0.00987413194444444,24.270616319444436,0)" xlink:href="#K"/><use transform="matrix(0.00987413194444444,0,0,0.00987413194444444,36.40592447916666,0)" xlink:href="#ag"/><use transform="matrix(0.00987413194444444,0,0,0.00987413194444444,48.54123263888887,0)" xlink:href="#ah"/><use transform="matrix(0.00987413194444444,0,0,0.00987413194444444,60.676540798611086,0)" xlink:href="#K"/><use transform="matrix(0.00987413194444444,0,0,0.00987413194444444,72.8118489583333,0)" xlink:href="#V"/><use transform="matrix(0.00987413194444444,0,0,0.00987413194444444,84.94715711805553,0)" xlink:href="#I"/><use transform="matrix(0.00987413194444444,0,0,0.00987413194444444,97.08246527777773,0)" xlink:href="#ah"/><use transform="matrix(0.00987413194444444,0,0,0.00987413194444444,109.21777343749994,0)" xlink:href="#aj"/><use transform="matrix(0.00987413194444444,0,0,0.00987413194444444,121.35308159722216,0)" xlink:href="#ak"/></g><path d="M648-963c-190 6-283 138-283 336V0H185v-1484h181c-2 197 6 404-9 587h3c62-120 159-205 339-205 242 0 351 135 350 381V0H868v-695c1-168-57-273-220-268" id="am"/><path d="M168 279c222 39 310-114 368-290L66-1082h192c120 299 249 590 362 896 115-301 235-597 351-896h190L705 0c-65 164-130 320-275 396-67 36-177 35-262 18V279" id="an"/><g id="m"><use transform="matrix(0.00987413194444444,0,0,0.00987413194444444,0,0)" xlink:href="#ac"/><use transform="matrix(0.00987413194444444,0,0,0.00987413194444444,12.135308159722218,0)" xlink:href="#af"/><use transform="matrix(0.00987413194444444,0,0,0.00987413194444444,24.270616319444436,0)" xlink:href="#K"/><use transform="matrix(0.00987413194444444,0,0,0.00987413194444444,36.40592447916666,0)" xlink:href="#ag"/><use transform="matrix(0.00987413194444444,0,0,0.00987413194444444,48.54123263888887,0)" xlink:href="#ah"/><use transform="matrix(0.00987413194444444,0,0,0.00987413194444444,60.676540798611086,0)" xlink:href="#af"/><use transform="matrix(0.00987413194444444,0,0,0.00987413194444444,72.8118489583333,0)" xlink:href="#am"/><use transform="matrix(0.00987413194444444,0,0,0.00987413194444444,84.94715711805553,0)" xlink:href="#an"/><use transform="matrix(0.00987413194444444,0,0,0.00987413194444444,97.08246527777773,0)" xlink:href="#ah"/><use transform="matrix(0.00987413194444444,0,0,0.00987413194444444,109.21777343749994,0)" xlink:href="#V"/><use transform="matrix(0.00987413194444444,0,0,0.00987413194444444,121.35308159722216,0)" xlink:href="#W"/><use transform="matrix(0.00987413194444444,0,0,0.00987413194444444,133.48838975694437,0)" xlink:href="#K"/><use transform="matrix(0.00987413194444444,0,0,0.00987413194444444,145.6236979166666,0)" xlink:href="#ad"/><use transform="matrix(0.00987413194444444,0,0,0.00987413194444444,157.75900607638883,0)" xlink:href="#ah"/><use transform="matrix(0.00987413194444444,0,0,0.00987413194444444,169.89431423611106,0)" xlink:href="#aj"/><use transform="matrix(0.00987413194444444,0,0,0.00987413194444444,182.0296223958333,0)" xlink:href="#ak"/></g><g id="n"><use transform="matrix(0.00987413194444444,0,0,0.00987413194444444,0,0)" xlink:href="#ac"/><use transform="matrix(0.00987413194444444,0,0,0.00987413194444444,12.135308159722218,0)" xlink:href="#af"/><use transform="matrix(0.00987413194444444,0,0,0.00987413194444444,24.270616319444436,0)" xlink:href="#K"/><use transform="matrix(0.00987413194444444,0,0,0.00987413194444444,36.40592447916666,0)" xlink:href="#ag"/><use transform="matrix(0.00987413194444444,0,0,0.00987413194444444,48.54123263888887,0)" xlink:href="#ah"/><use transform="matrix(0.00987413194444444,0,0,0.00987413194444444,60.676540798611086,0)" xlink:href="#af"/><use transform="matrix(0.00987413194444444,0,0,0.00987413194444444,72.8118489583333,0)" xlink:href="#am"/><use transform="matrix(0.00987413194444444,0,0,0.00987413194444444,84.94715711805553,0)" xlink:href="#an"/><use transform="matrix(0.00987413194444444,0,0,0.00987413194444444,97.08246527777773,0)" xlink:href="#ah"/><use transform="matrix(0.00987413194444444,0,0,0.00987413194444444,109.21777343749994,0)" xlink:href="#al"/><use transform="matrix(0.00987413194444444,0,0,0.00987413194444444,121.35308159722216,0)" xlink:href="#W"/><use transform="matrix(0.00987413194444444,0,0,0.00987413194444444,133.48838975694437,0)" xlink:href="#af"/><use transform="matrix(0.00987413194444444,0,0,0.00987413194444444,145.6236979166666,0)" xlink:href="#ah"/><use transform="matrix(0.00987413194444444,0,0,0.00987413194444444,157.75900607638883,0)" xlink:href="#aj"/><use transform="matrix(0.00987413194444444,0,0,0.00987413194444444,169.89431423611106,0)" xlink:href="#ak"/></g><g id="o"><use transform="matrix(0.00987413194444444,0,0,0.00987413194444444,0,0)" xlink:href="#ac"/><use transform="matrix(0.00987413194444444,0,0,0.00987413194444444,12.135308159722218,0)" xlink:href="#af"/><use transform="matrix(0.00987413194444444,0,0,0.00987413194444444,24.270616319444436,0)" xlink:href="#K"/><use transform="matrix(0.00987413194444444,0,0,0.00987413194444444,36.40592447916666,0)" xlink:href="#ag"/><use transform="matrix(0.00987413194444444,0,0,0.00987413194444444,48.54123263888887,0)" xlink:href="#ah"/><use transform="matrix(0.00987413194444444,0,0,0.00987413194444444,60.676540798611086,0)" xlink:href="#am"/><use transform="matrix(0.00987413194444444,0,0,0.00987413194444444,72.8118489583333,0)" xlink:href="#af"/><use transform="matrix(0.00987413194444444,0,0,0.00987413194444444,84.94715711805553,0)" xlink:href="#ac"/><use transform="matrix(0.00987413194444444,0,0,0.00987413194444444,97.08246527777773,0)" xlink:href="#ah"/><use transform="matrix(0.00987413194444444,0,0,0.00987413194444444,109.21777343749994,0)" xlink:href="#aj"/><use transform="matrix(0.00987413194444444,0,0,0.00987413194444444,121.35308159722216,0)" xlink:href="#ak"/></g><path d="M259 363l169-662h265L382 363H259" id="ao"/><g id="p"><use transform="matrix(0.00987413194444444,0,0,0.00987413194444444,0,0)" xlink:href="#L"/><use transform="matrix(0.00987413194444444,0,0,0.00987413194444444,12.135308159722218,0)" xlink:href="#M"/><use transform="matrix(0.00987413194444444,0,0,0.00987413194444444,24.270616319444436,0)" xlink:href="#N"/><use transform="matrix(0.00987413194444444,0,0,0.00987413194444444,36.40592447916666,0)" xlink:href="#ao"/></g><g id="q"><use transform="matrix(0.00987413194444444,0,0,0.00987413194444444,0,0)" xlink:href="#Z"/><use transform="matrix(0.00987413194444444,0,0,0.00987413194444444,12.135308159722218,0)" xlink:href="#J"/><use transform="matrix(0.00987413194444444,0,0,0.00987413194444444,24.270616319444436,0)" xlink:href="#I"/><use transform="matrix(0.00987413194444444,0,0,0.00987413194444444,36.40592447916666,0)" xlink:href="#aa"/></g><path d="M1185-10c-31 14-68 22-113 22-124 0-203-61-264-129C724-42 619 20 461 20 200 20 43-104 43-358c0-228 139-336 292-419-39-78-75-168-75-282 0-203 140-298 351-298 187 0 321 82 321 267 0 171-134 237-256 300-48 25-99 46-151 68 81 143 170 272 277 389 58-121 99-249 125-406l145 43c-31 176-94 329-162 462 55 77 161 133 275 89v135zM608-1236c-120 0-196 61-200 180-3 86 32 168 61 224 107-48 224-83 287-170 16-24 24-52 24-83 0-101-70-151-172-151zM211-362c-1 185 142 283 333 242 68-15 121-54 162-97-116-130-227-285-316-441-102 56-178 147-179 296" id="ap"/><use transform="matrix(0.00987413194444444,0,0,0.00987413194444444,0,0)" xlink:href="#ap" id="r"/><g id="s"><use transform="matrix(0.00987413194444444,0,0,0.00987413194444444,0,0)" xlink:href="#ab"/><use transform="matrix(0.00987413194444444,0,0,0.00987413194444444,12.135308159722218,0)" xlink:href="#J"/><use transform="matrix(0.00987413194444444,0,0,0.00987413194444444,24.270616319444436,0)" xlink:href="#ac"/><use transform="matrix(0.00987413194444444,0,0,0.00987413194444444,36.40592447916666,0)" xlink:href="#ad"/><use transform="matrix(0.00987413194444444,0,0,0.00987413194444444,48.54123263888887,0)" xlink:href="#ae"/></g><path d="M604-135c236 0 291-142 291-376v-838h190v859c5 340-142 510-480 510-326 0-463-164-463-492v-877h191v851c-3 222 46 363 271 363" id="aq"/><g id="t"><use transform="matrix(0.00987413194444444,0,0,0.00987413194444444,0,0)" xlink:href="#aq"/><use transform="matrix(0.00987413194444444,0,0,0.00987413194444444,12.135308159722218,0)" xlink:href="#af"/><use transform="matrix(0.00987413194444444,0,0,0.00987413194444444,24.270616319444436,0)" xlink:href="#O"/></g><g id="u"><use transform="matrix(0.00987413194444444,0,0,0.00987413194444444,0,0)" xlink:href="#T"/><use transform="matrix(0.00987413194444444,0,0,0.00987413194444444,12.135308159722218,0)" xlink:href="#ad"/><use transform="matrix(0.00987413194444444,0,0,0.00987413194444444,24.270616319444436,0)" xlink:href="#K"/></g><g id="v"><use transform="matrix(0.00987413194444444,0,0,0.00987413194444444,0,0)" xlink:href="#L"/><use transform="matrix(0.00987413194444444,0,0,0.00987413194444444,12.135308159722218,0)" xlink:href="#M"/><use transform="matrix(0.00987413194444444,0,0,0.00987413194444444,24.270616319444436,0)" xlink:href="#N"/></g><g id="w"><use transform="matrix(0.00987413194444444,0,0,0.00987413194444444,0,0)" xlink:href="#ac"/><use transform="matrix(0.00987413194444444,0,0,0.00987413194444444,12.135308159722218,0)" xlink:href="#af"/><use transform="matrix(0.00987413194444444,0,0,0.00987413194444444,24.270616319444436,0)" xlink:href="#V"/><use transform="matrix(0.00987413194444444,0,0,0.00987413194444444,36.40592447916666,0)" xlink:href="#ag"/><use transform="matrix(0.00987413194444444,0,0,0.00987413194444444,48.54123263888887,0)" xlink:href="#ah"/><use transform="matrix(0.00987413194444444,0,0,0.00987413194444444,60.676540798611086,0)" xlink:href="#ai"/><use transform="matrix(0.00987413194444444,0,0,0.00987413194444444,72.8118489583333,0)" xlink:href="#I"/><use transform="matrix(0.00987413194444444,0,0,0.00987413194444444,84.94715711805553,0)" xlink:href="#aa"/><use transform="matrix(0.00987413194444444,0,0,0.00987413194444444,97.08246527777773,0)" xlink:href="#ah"/><use transform="matrix(0.00987413194444444,0,0,0.00987413194444444,109.21777343749994,0)" xlink:href="#aj"/><use transform="matrix(0.00987413194444444,0,0,0.00987413194444444,121.35308159722216,0)" xlink:href="#ak"/></g><g id="x"><use transform="matrix(0.00987413194444444,0,0,0.00987413194444444,0,0)" xlink:href="#ac"/><use transform="matrix(0.00987413194444444,0,0,0.00987413194444444,12.135308159722218,0)" xlink:href="#af"/><use transform="matrix(0.00987413194444444,0,0,0.00987413194444444,24.270616319444436,0)" xlink:href="#V"/><use transform="matrix(0.00987413194444444,0,0,0.00987413194444444,36.40592447916666,0)" xlink:href="#ag"/><use transform="matrix(0.00987413194444444,0,0,0.00987413194444444,48.54123263888887,0)" xlink:href="#ah"/><use transform="matrix(0.00987413194444444,0,0,0.00987413194444444,60.676540798611086,0)" xlink:href="#al"/><use transform="matrix(0.00987413194444444,0,0,0.00987413194444444,72.8118489583333,0)" xlink:href="#J"/><use transform="matrix(0.00987413194444444,0,0,0.00987413194444444,84.94715711805553,0)" xlink:href="#ac"/><use transform="matrix(0.00987413194444444,0,0,0.00987413194444444,97.08246527777773,0)" xlink:href="#ah"/><use transform="matrix(0.00987413194444444,0,0,0.00987413194444444,109.21777343749994,0)" xlink:href="#aj"/><use transform="matrix(0.00987413194444444,0,0,0.00987413194444444,121.35308159722216,0)" xlink:href="#ak"/></g><g id="y"><use transform="matrix(0.00987413194444444,0,0,0.00987413194444444,0,0)" xlink:href="#ac"/><use transform="matrix(0.00987413194444444,0,0,0.00987413194444444,12.135308159722218,0)" xlink:href="#af"/><use transform="matrix(0.00987413194444444,0,0,0.00987413194444444,24.270616319444436,0)" xlink:href="#V"/><use transform="matrix(0.00987413194444444,0,0,0.00987413194444444,36.40592447916666,0)" xlink:href="#ag"/><use transform="matrix(0.00987413194444444,0,0,0.00987413194444444,48.54123263888887,0)" xlink:href="#ah"/><use transform="matrix(0.00987413194444444,0,0,0.00987413194444444,60.676540798611086,0)" xlink:href="#K"/><use transform="matrix(0.00987413194444444,0,0,0.00987413194444444,72.8118489583333,0)" xlink:href="#V"/><use transform="matrix(0.00987413194444444,0,0,0.00987413194444444,84.94715711805553,0)" xlink:href="#I"/><use transform="matrix(0.00987413194444444,0,0,0.00987413194444444,97.08246527777773,0)" xlink:href="#ah"/><use transform="matrix(0.00987413194444444,0,0,0.00987413194444444,109.21777343749994,0)" xlink:href="#aj"/><use transform="matrix(0.00987413194444444,0,0,0.00987413194444444,121.35308159722216,0)" xlink:href="#ak"/></g><g id="z"><use transform="matrix(0.00987413194444444,0,0,0.00987413194444444,0,0)" xlink:href="#ac"/><use transform="matrix(0.00987413194444444,0,0,0.00987413194444444,12.135308159722218,0)" xlink:href="#af"/><use transform="matrix(0.00987413194444444,0,0,0.00987413194444444,24.270616319444436,0)" xlink:href="#V"/><use transform="matrix(0.00987413194444444,0,0,0.00987413194444444,36.40592447916666,0)" xlink:href="#ag"/><use transform="matrix(0.00987413194444444,0,0,0.00987413194444444,48.54123263888887,0)" xlink:href="#ah"/><use transform="matrix(0.00987413194444444,0,0,0.00987413194444444,60.676540798611086,0)" xlink:href="#af"/><use transform="matrix(0.00987413194444444,0,0,0.00987413194444444,72.8118489583333,0)" xlink:href="#am"/><use transform="matrix(0.00987413194444444,0,0,0.00987413194444444,84.94715711805553,0)" xlink:href="#an"/><use transform="matrix(0.00987413194444444,0,0,0.00987413194444444,97.08246527777773,0)" xlink:href="#ah"/><use transform="matrix(0.00987413194444444,0,0,0.00987413194444444,109.21777343749994,0)" xlink:href="#V"/><use transform="matrix(0.00987413194444444,0,0,0.00987413194444444,121.35308159722216,0)" xlink:href="#W"/><use transform="matrix(0.00987413194444444,0,0,0.00987413194444444,133.48838975694437,0)" xlink:href="#K"/><use transform="matrix(0.00987413194444444,0,0,0.00987413194444444,145.6236979166666,0)" xlink:href="#ad"/><use transform="matrix(0.00987413194444444,0,0,0.00987413194444444,157.75900607638883,0)" xlink:href="#ah"/><use transform="matrix(0.00987413194444444,0,0,0.00987413194444444,169.89431423611106,0)" xlink:href="#aj"/><use transform="matrix(0.00987413194444444,0,0,0.00987413194444444,182.0296223958333,0)" xlink:href="#ak"/></g><g id="A"><use transform="matrix(0.00987413194444444,0,0,0.00987413194444444,0,0)" xlink:href="#Z"/><use transform="matrix(0.00987413194444444,0,0,0.00987413194444444,12.135308159722218,0)" xlink:href="#J"/><use transform="matrix(0.00987413194444444,0,0,0.00987413194444444,24.270616319444436,0)" xlink:href="#I"/><use transform="matrix(0.00987413194444444,0,0,0.00987413194444444,36.40592447916666,0)" xlink:href="#aa"/></g><g id="B"><use transform="matrix(0.00987413194444444,0,0,0.00987413194444444,0,0)" xlink:href="#ab"/><use transform="matrix(0.00987413194444444,0,0,0.00987413194444444,12.135308159722218,0)" xlink:href="#J"/><use transform="matrix(0.00987413194444444,0,0,0.00987413194444444,24.270616319444436,0)" xlink:href="#ac"/><use transform="matrix(0.00987413194444444,0,0,0.00987413194444444,36.40592447916666,0)" xlink:href="#ad"/><use transform="matrix(0.00987413194444444,0,0,0.00987413194444444,48.54123263888887,0)" xlink:href="#ae"/></g><path d="M904-1102c199 0 220 177 220 381V0H956v-686c-3-114 0-215-60-264-70-33-125-4-158 71-26 56-39 140-39 252V0H531v-686c-3-114-1-215-61-264-78-41-136 24-157 84-24 69-39 159-39 259V0H105c-3-360 6-732-6-1082h149c6 50 3 123 8 175 36-100 83-195 216-195 135 0 166 79 196 196 42-105 93-196 236-196" id="ar"/><g id="C"><use transform="matrix(0.00987413194444444,0,0,0.00987413194444444,0,0)" xlink:href="#ac"/><use transform="matrix(0.00987413194444444,0,0,0.00987413194444444,12.135308159722218,0)" xlink:href="#af"/><use transform="matrix(0.00987413194444444,0,0,0.00987413194444444,24.270616319444436,0)" xlink:href="#V"/><use transform="matrix(0.00987413194444444,0,0,0.00987413194444444,36.40592447916666,0)" xlink:href="#ag"/><use transform="matrix(0.00987413194444444,0,0,0.00987413194444444,48.54123263888887,0)" xlink:href="#ah"/><use transform="matrix(0.00987413194444444,0,0,0.00987413194444444,60.676540798611086,0)" xlink:href="#ar"/><use transform="matrix(0.00987413194444444,0,0,0.00987413194444444,72.8118489583333,0)" xlink:href="#Y"/><use transform="matrix(0.00987413194444444,0,0,0.00987413194444444,84.94715711805553,0)" xlink:href="#W"/><use transform="matrix(0.00987413194444444,0,0,0.00987413194444444,97.08246527777773,0)" xlink:href="#ah"/><use transform="matrix(0.00987413194444444,0,0,0.00987413194444444,109.21777343749994,0)" xlink:href="#aj"/><use transform="matrix(0.00987413194444444,0,0,0.00987413194444444,121.35308159722216,0)" xlink:href="#ak"/></g><path d="M614-836l333-513h205L717-705 1193 0H988L614-573 241 0H36l476-705-435-644h205" id="as"/><g id="D"><use transform="matrix(0.015299479166666663,0,0,0.015299479166666663,0,0)" xlink:href="#N"/><use transform="matrix(0.015299479166666663,0,0,0.015299479166666663,18.80305989583333,0)" xlink:href="#M"/><use transform="matrix(0.015299479166666663,0,0,0.015299479166666663,37.60611979166666,0)" xlink:href="#U"/><use transform="matrix(0.015299479166666663,0,0,0.015299479166666663,56.409179687499986,0)" xlink:href="#as"/></g><path d="M1121-976c0 225-142 341-344 379L1177 0H957L591-575H353V0H162v-1349h482c281 3 477 100 477 373zM633-726c181-1 296-73 296-247 0-149-101-223-304-223H353v470h280" id="at"/><g id="E"><use transform="matrix(0.015299479166666663,0,0,0.015299479166666663,0,0)" xlink:href="#N"/><use transform="matrix(0.015299479166666663,0,0,0.015299479166666663,18.80305989583333,0)" xlink:href="#M"/><use transform="matrix(0.015299479166666663,0,0,0.015299479166666663,37.60611979166666,0)" xlink:href="#at"/><use transform="matrix(0.015299479166666663,0,0,0.015299479166666663,56.409179687499986,0)" xlink:href="#as"/></g><g id="F"><use transform="matrix(0.00987413194444444,0,0,0.00987413194444444,0,0)" xlink:href="#ac"/><use transform="matrix(0.00987413194444444,0,0,0.00987413194444444,12.135308159722218,0)" xlink:href="#af"/><use transform="matrix(0.00987413194444444,0,0,0.00987413194444444,24.270616319444436,0)" xlink:href="#V"/><use transform="matrix(0.00987413194444444,0,0,0.00987413194444444,36.40592447916666,0)" xlink:href="#ag"/><use transform="matrix(0.00987413194444444,0,0,0.00987413194444444,48.54123263888887,0)" xlink:href="#ah"/><use transform="matrix(0.00987413194444444,0,0,0.00987413194444444,60.676540798611086,0)" xlink:href="#af"/><use transform="matrix(0.00987413194444444,0,0,0.00987413194444444,72.8118489583333,0)" xlink:href="#am"/><use transform="matrix(0.00987413194444444,0,0,0.00987413194444444,84.94715711805553,0)" xlink:href="#an"/><use transform="matrix(0.00987413194444444,0,0,0.00987413194444444,97.08246527777773,0)" xlink:href="#ah"/><use transform="matrix(0.00987413194444444,0,0,0.00987413194444444,109.21777343749994,0)" xlink:href="#V"/><use transform="matrix(0.00987413194444444,0,0,0.00987413194444444,121.35308159722216,0)" xlink:href="#Y"/><use transform="matrix(0.00987413194444444,0,0,0.00987413194444444,133.48838975694437,0)" xlink:href="#K"/><use transform="matrix(0.00987413194444444,0,0,0.00987413194444444,145.6236979166666,0)" xlink:href="#ah"/><use transform="matrix(0.00987413194444444,0,0,0.00987413194444444,157.75900607638883,0)" xlink:href="#aj"/><use transform="matrix(0.00987413194444444,0,0,0.00987413194444444,169.89431423611106,0)" xlink:href="#ak"/></g><g id="G"><use transform="matrix(0.00987413194444444,0,0,0.00987413194444444,0,0)" xlink:href="#ac"/><use transform="matrix(0.00987413194444444,0,0,0.00987413194444444,12.135308159722218,0)" xlink:href="#af"/><use transform="matrix(0.00987413194444444,0,0,0.00987413194444444,24.270616319444436,0)" xlink:href="#V"/><use transform="matrix(0.00987413194444444,0,0,0.00987413194444444,36.40592447916666,0)" xlink:href="#ag"/><use transform="matrix(0.00987413194444444,0,0,0.00987413194444444,48.54123263888887,0)" xlink:href="#ah"/><use transform="matrix(0.00987413194444444,0,0,0.00987413194444444,60.676540798611086,0)" xlink:href="#ac"/><use transform="matrix(0.00987413194444444,0,0,0.00987413194444444,72.8118489583333,0)" xlink:href="#af"/><use transform="matrix(0.00987413194444444,0,0,0.00987413194444444,84.94715711805553,0)" xlink:href="#aj"/><use transform="matrix(0.00987413194444444,0,0,0.00987413194444444,97.08246527777773,0)" xlink:href="#ac"/><use transform="matrix(0.00987413194444444,0,0,0.00987413194444444,109.21777343749994,0)" xlink:href="#ah"/><use transform="matrix(0.00987413194444444,0,0,0.00987413194444444,121.35308159722216,0)" xlink:href="#aj"/><use transform="matrix(0.00987413194444444,0,0,0.00987413194444444,133.48838975694437,0)" xlink:href="#ak"/></g></defs></g></svg>