<svg xmlns="http://www.w3.org/2000/svg" xmlns:xlink="http://www.w3.org/1999/xlink" xmlns:lucid="lucid" width="1358.33" height="1801.33"><g transform="translate(-72.66666616666669 -98.66666666666663)" lucid:page-tab-id="2E~45AsHZhbp"><path d="M92.67 118.67h1139.66v958H92.67z" stroke="#000" stroke-width="2" fill="#e3fae3"/><path d="M727.68 1157.67h180v120h-180z" stroke="#000" stroke-width="2" fill="#fff"/><use xlink:href="#a" transform="matrix(1,0,0,1,739.6834899677965,1169.6666666666665) translate(56.396484375 53.396484375)"/><path d="M993.35 1157.67h180V1880h-180z" stroke="#000" stroke-width="2" fill="#fff"/><use xlink:href="#b" transform="matrix(1,0,0,1,1005.3501569677961,1169.6666666666665) translate(61.79736328125 352.974609375)"/><path d="M727.68 1554.08h177.34v120H727.68z" stroke="#000" stroke-width="2" fill="#fff"/><use xlink:href="#c" transform="matrix(1,0,0,1,739.6834899677965,1566.0833333333333) translate(60.79736328125 53.396484375)"/><path d="M1178 418.67h198.5" stroke="#000" stroke-width="2" fill="none"/><path d="M1178.03 419.67H1177v-2h1.03z" stroke="#000" stroke-width=".05"/><path d="M1391.76 418.67l-14.26 4.63v-9.27z" stroke="#000" stroke-width="2"/><path d="M1255 378.67h108.67v40H1255z" stroke="#000" stroke-opacity="0" stroke-width="2" fill="#fff" fill-opacity="0"/><use xlink:href="#d" transform="matrix(1,0,0,1,1260.0000005000006,383.66666666666663) translate(11.69384765625 20.021484375)"/><path d="M1195.5 458.67H1393" stroke="#000" stroke-width="2" fill="none"/><path d="M1180.24 458.67l14.26-4.64v9.27z" stroke="#000" stroke-width="2"/><path d="M1392.97 458.67h1.03" stroke="#000" stroke-width="2" fill="none"/><path d="M1254 418.67h108.67v40H1254z" stroke="#000" stroke-opacity="0" stroke-width="2" fill="#fff" fill-opacity="0"/><use xlink:href="#e" transform="matrix(1,0,0,1,1259.0000005000006,423.66666666666663) translate(11.69384765625 20.021484375)"/><path d="M1178 778.67h175.83" stroke="#000" stroke-width="2" fill="none"/><path d="M1178.03 779.67H1177v-2h1.03z" stroke="#000" stroke-width=".05"/><path d="M1369.1 778.67l-14.27 4.63v-9.27z" stroke="#000" stroke-width="2"/><path d="M1232.33 738.67H1341v40h-108.67z" stroke="#000" stroke-opacity="0" stroke-width="2" fill="#fff" fill-opacity="0"/><use xlink:href="#f" transform="matrix(1,0,0,1,1237.3333335000007,743.6666666666666) translate(11.69384765625 20.021484375)"/><path d="M1195.5 818.67h158.33" stroke="#000" stroke-width="2" fill="none"/><path d="M1180.24 818.67l14.26-4.64v9.27zM1369.1 818.67l-14.27 4.63v-9.27z" stroke="#000" stroke-width="2"/><path d="M1232.33 778.67H1341v40h-108.67z" stroke="#000" stroke-opacity="0" stroke-width="2" fill="#fff" fill-opacity="0"/><use xlink:href="#g" transform="matrix(1,0,0,1,1237.3333335000007,783.6666666666666) translate(11.69384765625 20.021484375)"/><path d="M252.67 178.67H430v120H252.67z" stroke="#000" stroke-width="2" fill="#fff"/><use xlink:href="#h" transform="matrix(1,0,0,1,264.66666616666663,190.66666666666663) translate(44.5947265625 53.396484375)"/><path d="M132.67 398.67H310v120H132.67z" stroke="#000" stroke-width="2" fill="#fff"/><use xlink:href="#i" transform="matrix(1,0,0,1,144.6666661666667,410.66666666666663) translate(60.79736328125 53.396484375)"/><path d="M372.67 398.67H550v120H372.67z" stroke="#000" stroke-width="2" fill="#fff"/><use xlink:href="#j" transform="matrix(1,0,0,1,384.66666616666674,410.66666666666663) translate(60.79736328125 53.396484375)"/><path d="M511.33 618.67h177.34v280H511.33z" stroke="#000" stroke-width="2" fill="#fff"/><use xlink:href="#k" transform="matrix(1,0,0,1,523.3333328333334,630.6666666666666) translate(44.5947265625 134.396484375)"/><path d="M909.68 1217.67h64.17" stroke="#000" stroke-width="2" fill="none"/><path d="M909.7 1218.67h-1.02v-2h1.03z" stroke="#000" stroke-width=".05"/><path d="M989.1 1217.67l-14.25 4.63v-9.27z" stroke="#000" stroke-width="2"/><path d="M998.67 378.67H1176v120H998.67z" stroke="#000" stroke-width="2" fill="#fff"/><use xlink:href="#l" transform="matrix(1,0,0,1,1010.6666668333331,390.66666666666663) translate(55.396484375 53.396484375)"/><path d="M998.67 738.67H1176v120H998.67z" stroke="#000" stroke-width="2" fill="#fff"/><use xlink:href="#m" transform="matrix(1,0,0,1,1010.6666668333334,750.6666666666666) translate(60.79736328125 53.396484375)"/><path d="M996 918.67h177.33v120H996z" stroke="#000" stroke-width="2" fill="#fff"/><use xlink:href="#n" transform="matrix(1,0,0,1,1008.0000001666666,930.6666666666666) translate(22.9912109375 53.396484375)"/><use xlink:href="#o" transform="matrix(1,0,0,1,1008.0000001666666,930.6666666666666) translate(66.1982421875 53.396484375)"/><use xlink:href="#p" transform="matrix(1,0,0,1,1008.0000001666666,930.6666666666666) translate(87.8017578125 53.396484375)"/><path d="M1084.67 1040.67v97.5" stroke="#000" stroke-width="2" fill="none"/><path d="M1085.67 1040.7h-2v-1.03h2z" stroke="#000" stroke-width=".05"/><path d="M1084.67 1153.43l-4.64-14.27h9.27z" stroke="#000" stroke-width="2"/><path d="M1175.35 1320h206.15" stroke="#000" stroke-width="2" fill="none"/><path d="M1175.38 1321h-1.03v-2h1.03z" stroke="#000" stroke-width=".05"/><path d="M1396.76 1320l-14.26 4.64v-9.28z" stroke="#000" stroke-width="2"/><path d="M690.67 798.67h288.5" stroke="#000" stroke-width="2" fill="none"/><path d="M690.7 799.67h-1.03v-2h1.02z" stroke="#000" stroke-width=".05"/><path d="M994.43 798.67l-14.27 4.63v-9.27z" stroke="#000" stroke-width="2"/><path d="M979.16 438.67h-203.5v285h-85" stroke="#000" stroke-width="2" fill="none"/><path d="M994.43 438.67l-14.27 4.63v-9.27z" stroke="#000" stroke-width="2"/><path d="M690.7 724.67h-1.03v-2h1.02z" stroke="#000" stroke-width=".05"/><path d="M976.5 978.67H815.67V837.33h-125" stroke="#000" stroke-width="2" fill="none"/><path d="M991.76 978.67l-14.26 4.63v-9.27z" stroke="#000" stroke-width="2"/><path d="M690.7 838.33h-1.03v-2h1.02z" stroke="#000" stroke-width=".05"/><path d="M294.27 379.16v-78.5" stroke="#000" stroke-width="2" fill="none"/><path d="M294.27 394.43l-4.64-14.27h9.27z" stroke="#000" stroke-width="2"/><path d="M295.27 300.7h-2v-1.03h2z" stroke="#000" stroke-width=".05"/><path d="M394 379.16v-78.5" stroke="#000" stroke-width="2" fill="none"/><path d="M394 394.43l-4.64-14.27h9.28z" stroke="#000" stroke-width="2"/><path d="M395 300.7h-2v-1.03h2z" stroke="#000" stroke-width=".05"/><path d="M550 118.67h240v60H550z" stroke="#000" stroke-opacity="0" stroke-width="2" fill="#fff" fill-opacity="0"/><use xlink:href="#q" transform="matrix(1,0,0,1,554.9999995000002,123.66666666666663) translate(55.59033203125 30.021484375)"/><path d="M727.68 1760h180v120h-180z" stroke="#000" stroke-width="2" fill="#fff"/><use xlink:href="#r" transform="matrix(1,0,0,1,739.6834899677965,1772) translate(56.396484375 53.396484375)"/><path d="M996 198.67h177.33v120H996z" stroke="#000" stroke-width="2" fill="#fff"/><use xlink:href="#s" transform="matrix(1,0,0,1,1008.0000001666666,210.66666666666663) translate(60.79736328125 53.396484375)"/><path d="M998.67 558.67H1176v120H998.67z" stroke="#000" stroke-width="2" fill="#fff"/><use xlink:href="#t" transform="matrix(1,0,0,1,1010.6666668333331,570.6666666666666) translate(49.99560546875 53.396484375)"/><path d="M979.16 618.67h-163.5v140h-125" stroke="#000" stroke-width="2" fill="none"/><path d="M994.43 618.67l-14.27 4.63v-9.27z" stroke="#000" stroke-width="2"/><path d="M690.7 759.67h-1.03v-2h1.02z" stroke="#000" stroke-width=".05"/><path d="M976.5 258.67H735.67v420h-45" stroke="#000" stroke-width="2" fill="none"/><path d="M991.76 258.67l-14.26 4.63v-9.27z" stroke="#000" stroke-width="2"/><path d="M690.7 679.67h-1.03v-2h1.02z" stroke="#000" stroke-width=".05"/><path d="M927.2 1820h64.15" stroke="#000" stroke-width="2" fill="none"/><path d="M911.92 1820l14.27-4.64v9.28z" stroke="#000" stroke-width="2"/><path d="M992.35 1821h-1.03v-2h1.03z" stroke="#000" stroke-width=".05"/><path d="M817.68 1758v-64.4" stroke="#000" stroke-width="2" fill="none"/><path d="M818.68 1759h-2v-1.03h2z" stroke="#000" stroke-width=".05"/><path d="M817.68 1678.32l4.64 14.27h-9.27z" stroke="#000" stroke-width="2"/><path d="M816.35 1346.17v-49" stroke="#000" stroke-width="2" fill="none"/><path d="M817.35 1347.17h-2v-1.03h2z" stroke="#000" stroke-width=".05"/><path d="M816.35 1281.9l4.64 14.27h-9.3z" stroke="#000" stroke-width="2"/><path d="M708.18 1820H560V900.67" stroke="#000" stroke-width="2" fill="none"/><path d="M723.45 1820l-14.27 4.64v-9.28z" stroke="#000" stroke-width="2"/><path d="M561 900.7h-2v-1.03h2z" stroke="#000" stroke-width=".05"/><path d="M708.18 1614.08H583v-713.4" stroke="#000" stroke-width="2" fill="none"/><path d="M723.45 1614.08l-14.27 4.64v-9.27z" stroke="#000" stroke-width="2"/><path d="M584 900.7h-2v-1.03h2z" stroke="#000" stroke-width=".05"/><path d="M708.18 1217.67H640v-317" stroke="#000" stroke-width="2" fill="none"/><path d="M723.45 1217.67l-14.27 4.63v-9.27z" stroke="#000" stroke-width="2"/><path d="M641 900.7h-2v-1.03h2z" stroke="#000" stroke-width=".05"/><path d="M1192.85 1741.36H1399" stroke="#000" stroke-width="2" fill="none"/><path d="M1177.6 1741.36l14.25-4.64v9.27z" stroke="#000" stroke-width="2"/><path d="M1398.97 1741.36h1.03" stroke="#000" stroke-width="2" fill="none"/><path d="M1232.33 1277.67H1341v40h-108.67z" stroke="#000" stroke-opacity="0" stroke-width="2" fill="#fff" fill-opacity="0"/><use xlink:href="#u" transform="matrix(1,0,0,1,1237.3333335000002,1282.6666666666665) translate(-9.90966796875 20.396484375)"/><path d="M1240 1700h108.67v40H1240z" stroke="#000" stroke-opacity="0" stroke-width="2" fill="#fff" fill-opacity="0"/><use xlink:href="#v" transform="matrix(1,0,0,1,1245,1705) translate(-9.90966796875 20.396484375)"/><path d="M600 599.16V340H395" stroke="#000" stroke-width="2" fill="none"/><path d="M600 614.43l-4.64-14.27h9.28z" stroke="#000" stroke-width="2"/><path d="M395.03 340H394" stroke="#000" stroke-width="2" fill="none"/><path d="M727.68 1348.17h177.34v120H727.68z" stroke="#000" stroke-width="2" fill="#fff"/><use xlink:href="#w" transform="matrix(1,0,0,1,739.6834898764384,1360.1666666666665) translate(44.5947265625 53.396484375)"/><path d="M816.35 1552.08v-64.41" stroke="#000" stroke-width="2" fill="none"/><path d="M817.35 1553.08h-2v-1.02h2z" stroke="#000" stroke-width=".05"/><path d="M816.35 1472.4l4.64 14.27h-9.3z" stroke="#000" stroke-width="2"/><path d="M708.18 1408.17H618v-507.5" stroke="#000" stroke-width="2" fill="none"/><path d="M723.45 1408.17l-14.27 4.63v-9.27z" stroke="#000" stroke-width="2"/><path d="M619 900.7h-2v-1.03h2z" stroke="#000" stroke-width=".05"/><defs><path d="M473-1349c438-1 655 221 652 661C1122-268 945-8 532 0H162v-1349h311zm42 1193c308-4 416-205 418-532 2-330-131-509-459-505H353v1037h162" id="x"/><path d="M622-1349c296 4 497 117 497 404 0 282-193 424-485 431H353V0H162v-1349h460zm-15 684c195-3 320-88 320-277 0-184-129-255-328-254H353v531h254" id="y"/><path d="M709-1193V0H519v-1193H76v-156h1076v156H709" id="z"/><path d="M614-836l333-513h205L717-705 1193 0H988L614-573 241 0H36l476-705-435-644h205" id="A"/><g id="a"><use transform="matrix(0.0087890625,0,0,0.0087890625,0,0)" xlink:href="#x"/><use transform="matrix(0.0087890625,0,0,0.0087890625,10.8017578125,0)" xlink:href="#y"/><use transform="matrix(0.0087890625,0,0,0.0087890625,21.603515625,0)" xlink:href="#z"/><use transform="matrix(0.0087890625,0,0,0.0087890625,32.4052734375,0)" xlink:href="#A"/></g><path d="M875 0v-623H353V0H162v-1349h191v566h522v-566h191V0H875" id="B"/><path d="M708-584V0H520v-584L36-1349h205l374 611 372-611h205" id="C"/><g id="b"><use transform="matrix(0.0087890625,0,0,0.0087890625,0,0)" xlink:href="#y"/><use transform="matrix(0.0087890625,0,0,0.0087890625,10.8017578125,0)" xlink:href="#B"/><use transform="matrix(0.0087890625,0,0,0.0087890625,21.603515625,0)" xlink:href="#C"/></g><path d="M713 0H515L10-1349h201C345-955 498-579 615-168c116-411 269-787 402-1181h201" id="D"/><path d="M802-711c201 25 350 118 350 331C1152-95 921 0 634 0H162v-1349c401 9 908-74 908 327 0 184-111 275-268 311zm-224-69c174-2 300-51 300-218 0-163-124-198-302-198H353v416h225zM353-153c281-2 612 44 606-244-5-271-329-233-606-234v478" id="E"/><g id="c"><use transform="matrix(0.0087890625,0,0,0.0087890625,0,0)" xlink:href="#D"/><use transform="matrix(0.0087890625,0,0,0.0087890625,10.8017578125,0)" xlink:href="#z"/><use transform="matrix(0.0087890625,0,0,0.0087890625,21.603515625,0)" xlink:href="#E"/></g><path d="M604-135c236 0 291-142 291-376v-838h190v859c5 340-142 510-480 510-326 0-463-164-463-492v-877h191v851c-3 222 46 363 271 363" id="F"/><path d="M1034 0L896-382H333L196 0H0l510-1349h217L1228 0h-194zM847-531c-77-225-157-447-231-674-69 231-154 451-232 674h463" id="G"/><path d="M1121-976c0 225-142 341-344 379L1177 0H957L591-575H353V0H162v-1349h482c281 3 477 100 477 373zM633-726c181-1 296-73 296-247 0-149-101-223-304-223H353v470h280" id="H"/><path d="M-5 220v-96h1238v96H-5" id="I"/><g id="d"><use transform="matrix(0.0087890625,0,0,0.0087890625,0,0)" xlink:href="#F"/><use transform="matrix(0.0087890625,0,0,0.0087890625,10.8017578125,0)" xlink:href="#G"/><use transform="matrix(0.0087890625,0,0,0.0087890625,21.603515625,0)" xlink:href="#H"/><use transform="matrix(0.0087890625,0,0,0.0087890625,32.4052734375,0)" xlink:href="#z"/><use transform="matrix(0.0087890625,0,0,0.0087890625,43.20703125,0)" xlink:href="#I"/><use transform="matrix(0.0087890625,0,0,0.0087890625,54.0087890625,0)" xlink:href="#z"/><use transform="matrix(0.0087890625,0,0,0.0087890625,64.810546875,0)" xlink:href="#A"/></g><g id="e"><use transform="matrix(0.0087890625,0,0,0.0087890625,0,0)" xlink:href="#F"/><use transform="matrix(0.0087890625,0,0,0.0087890625,10.8017578125,0)" xlink:href="#G"/><use transform="matrix(0.0087890625,0,0,0.0087890625,21.603515625,0)" xlink:href="#H"/><use transform="matrix(0.0087890625,0,0,0.0087890625,32.4052734375,0)" xlink:href="#z"/><use transform="matrix(0.0087890625,0,0,0.0087890625,43.20703125,0)" xlink:href="#I"/><use transform="matrix(0.0087890625,0,0,0.0087890625,54.0087890625,0)" xlink:href="#H"/><use transform="matrix(0.0087890625,0,0,0.0087890625,64.810546875,0)" xlink:href="#A"/></g><path d="M202-1349h823v156H709v1037h316V0H202v-156h316v-1037H202v-156" id="J"/><path d="M611-1370c266 0 451 106 451 368 0 147-77 243-154 327-132 144-316 255-451 395-42 44-75 87-96 134h723V0H144v-117c124-264 387-411 582-603 73-72 151-147 151-271 0-161-104-231-266-231-163 0-249 90-268 238l-184-17c35-233 185-369 452-369" id="K"/><path d="M650-1214c-281 0-336 244-336 533 0 295 60 546 347 546 188 0 263-142 322-282l159 65C1058-155 935 20 659 20c-401 0-546-295-546-701 0-407 135-689 536-689 264 0 391 146 466 335l-168 65c-47-129-127-244-297-244" id="L"/><path d="M614-1226c-167 1-283 53-283 213 0 183 186 193 334 234 230 63 463 120 463 409 0 286-219 387-518 390C309 23 131-98 79-338l185-37c34 165 149 248 351 246 184-2 324-58 324-238 0-203-207-221-372-266-210-57-422-111-422-377 0-267 201-356 470-360 279-5 430 101 480 324l-188 33c-28-141-121-215-293-213" id="M"/><path d="M237 0v-1349h191v1193h672V0H237" id="N"/><g id="f"><use transform="matrix(0.0087890625,0,0,0.0087890625,0,0)" xlink:href="#J"/><use transform="matrix(0.0087890625,0,0,0.0087890625,10.8017578125,0)" xlink:href="#K"/><use transform="matrix(0.0087890625,0,0,0.0087890625,21.603515625,0)" xlink:href="#L"/><use transform="matrix(0.0087890625,0,0,0.0087890625,32.4052734375,0)" xlink:href="#I"/><use transform="matrix(0.0087890625,0,0,0.0087890625,43.20703125,0)" xlink:href="#M"/><use transform="matrix(0.0087890625,0,0,0.0087890625,54.0087890625,0)" xlink:href="#L"/><use transform="matrix(0.0087890625,0,0,0.0087890625,64.810546875,0)" xlink:href="#N"/></g><g id="g"><use transform="matrix(0.0087890625,0,0,0.0087890625,0,0)" xlink:href="#J"/><use transform="matrix(0.0087890625,0,0,0.0087890625,10.8017578125,0)" xlink:href="#K"/><use transform="matrix(0.0087890625,0,0,0.0087890625,21.603515625,0)" xlink:href="#L"/><use transform="matrix(0.0087890625,0,0,0.0087890625,32.4052734375,0)" xlink:href="#I"/><use transform="matrix(0.0087890625,0,0,0.0087890625,43.20703125,0)" xlink:href="#M"/><use transform="matrix(0.0087890625,0,0,0.0087890625,54.0087890625,0)" xlink:href="#x"/><use transform="matrix(0.0087890625,0,0,0.0087890625,64.810546875,0)" xlink:href="#G"/></g><path d="M334-464v-160h560v160H334" id="O"/><g id="h"><use transform="matrix(0.0087890625,0,0,0.0087890625,0,0)" xlink:href="#H"/><use transform="matrix(0.0087890625,0,0,0.0087890625,10.8017578125,0)" xlink:href="#J"/><use transform="matrix(0.0087890625,0,0,0.0087890625,21.603515625,0)" xlink:href="#M"/><use transform="matrix(0.0087890625,0,0,0.0087890625,32.4052734375,0)" xlink:href="#L"/><use transform="matrix(0.0087890625,0,0,0.0087890625,43.20703125,0)" xlink:href="#O"/><use transform="matrix(0.0087890625,0,0,0.0087890625,54.0087890625,0)" xlink:href="#D"/></g><path d="M102-681c0-398 126-689 513-689 165 0 291 58 379 174s132 287 132 515c-1 318-88 554-298 657-123 61-317 58-438-3-206-104-288-341-288-654zm749 406c94-160 97-656-5-807-57-85-130-132-231-132-104 0-178 47-234 132-101 153-99 655 1 809 57 89 130 138 232 138 109 0 184-49 237-140" id="P"/><path d="M285-1169c8 382 2 780 4 1169H129v-1349h237c86 239 188 461 253 720 69-258 169-481 255-720h225V0H937c2-390-5-788 6-1169-75 255-170 488-259 729H547c-90-240-185-475-262-729" id="Q"/><g id="i"><use transform="matrix(0.0087890625,0,0,0.0087890625,0,0)" xlink:href="#H"/><use transform="matrix(0.0087890625,0,0,0.0087890625,10.8017578125,0)" xlink:href="#P"/><use transform="matrix(0.0087890625,0,0,0.0087890625,21.603515625,0)" xlink:href="#Q"/></g><g id="j"><use transform="matrix(0.0087890625,0,0,0.0087890625,0,0)" xlink:href="#H"/><use transform="matrix(0.0087890625,0,0,0.0087890625,10.8017578125,0)" xlink:href="#G"/><use transform="matrix(0.0087890625,0,0,0.0087890625,21.603515625,0)" xlink:href="#Q"/></g><g id="k"><use transform="matrix(0.0087890625,0,0,0.0087890625,0,0)" xlink:href="#N"/><use transform="matrix(0.0087890625,0,0,0.0087890625,10.8017578125,0)" xlink:href="#E"/><use transform="matrix(0.0087890625,0,0,0.0087890625,21.603515625,0)" xlink:href="#I"/><use transform="matrix(0.0087890625,0,0,0.0087890625,32.4052734375,0)" xlink:href="#Q"/><use transform="matrix(0.0087890625,0,0,0.0087890625,43.20703125,0)" xlink:href="#F"/><use transform="matrix(0.0087890625,0,0,0.0087890625,54.0087890625,0)" xlink:href="#A"/></g><g id="l"><use transform="matrix(0.0087890625,0,0,0.0087890625,0,0)" xlink:href="#F"/><use transform="matrix(0.0087890625,0,0,0.0087890625,10.8017578125,0)" xlink:href="#G"/><use transform="matrix(0.0087890625,0,0,0.0087890625,21.603515625,0)" xlink:href="#H"/><use transform="matrix(0.0087890625,0,0,0.0087890625,32.4052734375,0)" xlink:href="#z"/></g><g id="m"><use transform="matrix(0.0087890625,0,0,0.0087890625,0,0)" xlink:href="#J"/><use transform="matrix(0.0087890625,0,0,0.0087890625,10.8017578125,0)" xlink:href="#K"/><use transform="matrix(0.0087890625,0,0,0.0087890625,21.603515625,0)" xlink:href="#L"/></g><g id="n"><use transform="matrix(0.0087890625,0,0,0.0087890625,0,0)" xlink:href="#x"/><use transform="matrix(0.0087890625,0,0,0.0087890625,10.8017578125,0)" xlink:href="#H"/><use transform="matrix(0.0087890625,0,0,0.0087890625,21.603515625,0)" xlink:href="#y"/></g><path d="M114 20l821-1504h178L296 20H114" id="R"/><use transform="matrix(0.0087890625,0,0,0.0087890625,0,0)" xlink:href="#R" id="o"/><g id="p"><use transform="matrix(0.0087890625,0,0,0.0087890625,0,0)" xlink:href="#N"/><use transform="matrix(0.0087890625,0,0,0.0087890625,10.8017578125,0)" xlink:href="#Q"/><use transform="matrix(0.0087890625,0,0,0.0087890625,21.603515625,0)" xlink:href="#Q"/><use transform="matrix(0.0087890625,0,0,0.0087890625,32.4052734375,0)" xlink:href="#J"/></g><path d="M912-211c-10-84-18-177-18-274v-864h172V0H836L316-1130c7 79 16 167 16 254V0H162v-1349h222" id="S"/><g id="q"><use transform="matrix(0.0087890625,0,0,0.0087890625,0,0)" xlink:href="#G"/><use transform="matrix(0.0087890625,0,0,0.0087890625,10.8017578125,0)" xlink:href="#y"/><use transform="matrix(0.0087890625,0,0,0.0087890625,21.603515625,0)" xlink:href="#y"/><use transform="matrix(0.0087890625,0,0,0.0087890625,32.4052734375,0)" xlink:href="#N"/><use transform="matrix(0.0087890625,0,0,0.0087890625,43.20703125,0)" xlink:href="#J"/><use transform="matrix(0.0087890625,0,0,0.0087890625,54.0087890625,0)" xlink:href="#L"/><use transform="matrix(0.0087890625,0,0,0.0087890625,64.810546875,0)" xlink:href="#G"/><use transform="matrix(0.0087890625,0,0,0.0087890625,75.6123046875,0)" xlink:href="#z"/><use transform="matrix(0.0087890625,0,0,0.0087890625,86.4140625,0)" xlink:href="#J"/><use transform="matrix(0.0087890625,0,0,0.0087890625,97.2158203125,0)" xlink:href="#P"/><use transform="matrix(0.0087890625,0,0,0.0087890625,108.017578125,0)" xlink:href="#S"/></g><g id="r"><use transform="matrix(0.0087890625,0,0,0.0087890625,0,0)" xlink:href="#x"/><use transform="matrix(0.0087890625,0,0,0.0087890625,10.8017578125,0)" xlink:href="#y"/><use transform="matrix(0.0087890625,0,0,0.0087890625,21.603515625,0)" xlink:href="#H"/><use transform="matrix(0.0087890625,0,0,0.0087890625,32.4052734375,0)" xlink:href="#A"/></g><g id="s"><use transform="matrix(0.0087890625,0,0,0.0087890625,0,0)" xlink:href="#y"/><use transform="matrix(0.0087890625,0,0,0.0087890625,10.8017578125,0)" xlink:href="#J"/><use transform="matrix(0.0087890625,0,0,0.0087890625,21.603515625,0)" xlink:href="#P"/></g><path d="M162 0v-1349h919v156H353v422h668v154H353v461h769V0H162" id="T"/><g id="t"><use transform="matrix(0.0087890625,0,0,0.0087890625,0,0)" xlink:href="#z"/><use transform="matrix(0.0087890625,0,0,0.0087890625,10.8017578125,0)" xlink:href="#J"/><use transform="matrix(0.0087890625,0,0,0.0087890625,21.603515625,0)" xlink:href="#Q"/><use transform="matrix(0.0087890625,0,0,0.0087890625,32.4052734375,0)" xlink:href="#T"/><use transform="matrix(0.0087890625,0,0,0.0087890625,43.20703125,0)" xlink:href="#H"/></g><path d="M410 425v-1909h547v139H590V286h367v139H410" id="U"/><path d="M1060-1016c0 191-128 285-295 323v4c154 18 262 91 313 209 14 35 21 72 21 110 0 277-194 390-478 390-292 0-457-129-493-382l186-17c24 161 121 250 307 250 172 1 298-80 291-247-8-208-220-239-446-233v-156c217 9 409-34 409-232 0-152-102-225-264-225-159 0-264 88-278 233l-181-14c33-239 196-367 461-367 264 0 447 102 447 354" id="V"/><path d="M496 0v-299h235V0H496zm0-783v-299h235v299H496" id="W"/><path d="M1065-1013c47 164 49 500-1 665C999-130 875 20 611 20c-377 0-484-300-487-695-2-245 41-425 141-551 77-98 191-144 352-144 261 0 386 140 448 357zM741-155c199-92 203-504 159-785-26-168-96-284-283-284-281 0-308 256-311 549-2 181 18 324 80 428 46 77 115 118 227 120 47 0 90-10 128-28zM496-555v-249h235v249H496" id="X"/><path d="M270 425V286h367v-1631H270v-139h547V425H270" id="Y"/><g id="u"><use transform="matrix(0.0087890625,0,0,0.0087890625,0,0)" xlink:href="#y"/><use transform="matrix(0.0087890625,0,0,0.0087890625,10.8017578125,0)" xlink:href="#B"/><use transform="matrix(0.0087890625,0,0,0.0087890625,21.603515625,0)" xlink:href="#C"/><use transform="matrix(0.0087890625,0,0,0.0087890625,32.4052734375,0)" xlink:href="#I"/><use transform="matrix(0.0087890625,0,0,0.0087890625,43.20703125,0)" xlink:href="#z"/><use transform="matrix(0.0087890625,0,0,0.0087890625,54.0087890625,0)" xlink:href="#A"/><use transform="matrix(0.0087890625,0,0,0.0087890625,64.810546875,0)" xlink:href="#U"/><use transform="matrix(0.0087890625,0,0,0.0087890625,75.6123046875,0)" xlink:href="#V"/><use transform="matrix(0.0087890625,0,0,0.0087890625,86.4140625,0)" xlink:href="#W"/><use transform="matrix(0.0087890625,0,0,0.0087890625,97.2158203125,0)" xlink:href="#X"/><use transform="matrix(0.0087890625,0,0,0.0087890625,108.017578125,0)" xlink:href="#Y"/></g><g id="v"><use transform="matrix(0.0087890625,0,0,0.0087890625,0,0)" xlink:href="#y"/><use transform="matrix(0.0087890625,0,0,0.0087890625,10.8017578125,0)" xlink:href="#B"/><use transform="matrix(0.0087890625,0,0,0.0087890625,21.603515625,0)" xlink:href="#C"/><use transform="matrix(0.0087890625,0,0,0.0087890625,32.4052734375,0)" xlink:href="#I"/><use transform="matrix(0.0087890625,0,0,0.0087890625,43.20703125,0)" xlink:href="#H"/><use transform="matrix(0.0087890625,0,0,0.0087890625,54.0087890625,0)" xlink:href="#A"/><use transform="matrix(0.0087890625,0,0,0.0087890625,64.810546875,0)" xlink:href="#U"/><use transform="matrix(0.0087890625,0,0,0.0087890625,75.6123046875,0)" xlink:href="#V"/><use transform="matrix(0.0087890625,0,0,0.0087890625,86.4140625,0)" xlink:href="#W"/><use transform="matrix(0.0087890625,0,0,0.0087890625,97.2158203125,0)" xlink:href="#X"/><use transform="matrix(0.0087890625,0,0,0.0087890625,108.017578125,0)" xlink:href="#Y"/></g><g id="w"><use transform="matrix(0.0087890625,0,0,0.0087890625,0,0)" xlink:href="#M"/><use transform="matrix(0.0087890625,0,0,0.0087890625,10.8017578125,0)" xlink:href="#L"/><use transform="matrix(0.0087890625,0,0,0.0087890625,21.603515625,0)" xlink:href="#G"/><use transform="matrix(0.0087890625,0,0,0.0087890625,32.4052734375,0)" xlink:href="#N"/><use transform="matrix(0.0087890625,0,0,0.0087890625,43.20703125,0)" xlink:href="#T"/><use transform="matrix(0.0087890625,0,0,0.0087890625,54.0087890625,0)" xlink:href="#H"/></g></defs></g></svg>