<svg xmlns="http://www.w3.org/2000/svg" xmlns:xlink="http://www.w3.org/1999/xlink" xmlns:lucid="lucid" width="2040" height="1826.22"><g transform="translate(171 -73.7777777777778)" lucid:page-tab-id="0_0"><path d="M560 140h600v1020H560z" stroke="#000" stroke-width="2" fill="#99d5ca" fill-opacity=".33"/><path d="M620 200h160v120H620z" stroke="#000" stroke-width="2" fill="#fff"/><use xlink:href="#a" transform="matrix(1,0,0,1,625,205) translate(29.79320987654323 61.219444444444434)"/><path d="M940 200h160v120H940z" stroke="#000" stroke-width="2" fill="#fff"/><use xlink:href="#b" transform="matrix(1,0,0,1,945,205) translate(35.945061728395075 61.219444444444434)"/><path d="M782 240h156" stroke="#000" stroke-width="2" fill="none"/><path d="M782.03 241H781v-2h1.03zM939 241h-1.03v-2H939z" stroke="#000" stroke-width=".05"/><path d="M940 360h160v120H940z" stroke="#000" stroke-width="2" fill="#fff"/><use xlink:href="#c" transform="matrix(1,0,0,1,945,365) translate(37.80925925925928 61.219444444444434)"/><path d="M782 280h78v140h78" stroke="#000" stroke-width="2" fill="none"/><path d="M782.03 281H781v-2h1.03zM939 421h-1.03v-2H939z" stroke="#000" stroke-width=".05"/><path d="M940 520h160v120H940z" stroke="#000" stroke-width="2" fill="#fff"/><use xlink:href="#d" transform="matrix(1,0,0,1,945,525) translate(46.10493827160495 61.219444444444434)"/><path d="M860 421v577M860 421.03V420" stroke="#000" stroke-width="2" fill="none"/><path d="M861 999h-2v-1.03h2z" stroke="#000" stroke-width=".05"/><path d="M940 680h160v120H940z" stroke="#000" stroke-width="2" fill="#fff"/><use xlink:href="#e" transform="matrix(1,0,0,1,945,685) translate(38.78796296296298 61.219444444444434)"/><path d="M780 1000h160v120H780z" stroke="#000" stroke-width="2" fill="#fff"/><use xlink:href="#f" transform="matrix(1,0,0,1,785,1005) translate(36.83055555555557 61.219444444444434)"/><path d="M620 460h160v120H620z" stroke="#000" stroke-width="2" fill="#fff"/><use xlink:href="#g" transform="matrix(1,0,0,1,625,465) translate(45.219444444444456 61.219444444444434)"/><path d="M620 620h160v120H620z" stroke="#000" stroke-width="2" fill="#fff"/><use xlink:href="#h" transform="matrix(1,0,0,1,625,625) translate(28.488271604938298 61.219444444444434)"/><path d="M782 520h78v220h78" stroke="#000" stroke-width="2" fill="none"/><path d="M782.03 521H781v-2h1.03zM939 741h-1.03v-2H939z" stroke="#000" stroke-width=".05"/><path d="M861 580h77M861.03 580H860" stroke="#000" stroke-width="2" fill="none"/><path d="M939 581h-1.03v-2H939z" stroke="#000" stroke-width=".05"/><path d="M800 198.22h100v43.56H800z" stroke="#000" stroke-opacity="0" stroke-width="2" fill="#fff" fill-opacity="0"/><use xlink:href="#i" transform="matrix(1,0,0,1,805,203.22222222222223) translate(-15.409830729166636 27.060112847222218)"/><path d="M800 238.22h100v43.56H800z" stroke="#000" stroke-opacity="0" stroke-width="2" fill="#fff" fill-opacity="0"/><use xlink:href="#j" transform="matrix(1,0,0,1,805,243.22222222222223) translate(-15.409830729166636 27.060112847222218)"/><path d="M782 680h77" stroke="#000" stroke-width="2" fill="none"/><path d="M782.03 681H781v-2h1.03z" stroke="#000" stroke-width=".05"/><path d="M858.97 680H860" stroke="#000" stroke-width="2" fill="none"/><path d="M800 93.78h100v52.44H800z" stroke="#000" stroke-opacity="0" stroke-width="2" fill="#fff" fill-opacity="0"/><use xlink:href="#k" transform="matrix(1,0,0,1,805,98.7777777777778) translate(-31.41243489583327 34.22504340277777)"/><path d="M800 1253.78h100v52.44H800z" stroke="#000" stroke-opacity="0" stroke-width="2" fill="#fff" fill-opacity="0"/><use xlink:href="#l" transform="matrix(1,0,0,1,805,1258.7777777777778) translate(-44.147840711805486 34.22504340277777)"/><path d="M301 680h299.5M301.03 680H300" stroke="#000" stroke-width="2" fill="none"/><path d="M615.76 680l-14.26 4.64v-9.28z" stroke="#000" stroke-width="2"/><path d="M340 639.82h100v43.56H340z" stroke="#000" stroke-opacity="0" stroke-width="2" fill="#fff" fill-opacity="0"/><use xlink:href="#m" transform="matrix(1,0,0,1,345,644.8222222222221) translate(-25.478135850694414 27.060112847222218)"/><path d="M600.5 840H301" stroke="#000" stroke-width="2" fill="none"/><path d="M615.76 840l-14.26 4.64v-9.28z" stroke="#000" stroke-width="2"/><path d="M301.03 840H300" stroke="#000" stroke-width="2" fill="none"/><path d="M340 798.22h100v43.56H340z" stroke="#000" stroke-opacity="0" stroke-width="2" fill="#fff" fill-opacity="0"/><use xlink:href="#n" transform="matrix(1,0,0,1,345,803.2222222222222) translate(-15.409830729166636 27.060112847222218)"/><path d="M1419 860h-299.5M1418.97 860h1.03" stroke="#000" stroke-width="2" fill="none"/><path d="M1104.24 860l14.26-4.64v9.28z" stroke="#000" stroke-width="2"/><path d="M1230 818.22h100v43.56h-100z" stroke="#000" stroke-opacity="0" stroke-width="2" fill="#fff" fill-opacity="0"/><use xlink:href="#o" transform="matrix(1,0,0,1,1235,823.2222222222222) translate(-45.61474609374996 27.060112847222218)"/><path d="M1401.5 900H1102" stroke="#000" stroke-width="2" fill="none"/><path d="M1416.76 900l-14.26 4.64v-9.28z" stroke="#000" stroke-width="2"/><path d="M1102.03 901H1101v-2h1.03z" stroke="#000" stroke-width=".05"/><path d="M1240 858.22h100v43.56h-100z" stroke="#000" stroke-opacity="0" stroke-width="2" fill="#fff" fill-opacity="0"/><use xlink:href="#p" transform="matrix(1,0,0,1,1245,863.2222222222222) translate(-55.68305121527773 27.060112847222218)"/><path d="M1401.5 940H1102" stroke="#000" stroke-width="2" fill="none"/><path d="M1416.76 940l-14.26 4.64v-9.28z" stroke="#000" stroke-width="2"/><path d="M1102.03 941H1101v-2h1.03z" stroke="#000" stroke-width=".05"/><path d="M1240 898.22h100v43.56h-100z" stroke="#000" stroke-opacity="0" stroke-width="2" fill="#fff" fill-opacity="0"/><use xlink:href="#q" transform="matrix(1,0,0,1,1245,903.2222222222222) translate(-55.68305121527773 27.060112847222218)"/><path d="M940 840h160v120H940z" stroke="#000" stroke-width="2" fill="#fff"/><use xlink:href="#r" transform="matrix(1,0,0,1,945,845) translate(40.55895061728397 61.219444444444434)"/><path d="M620 780h160v120H620z" stroke="#000" stroke-width="2" fill="#fff"/><use xlink:href="#s" transform="matrix(1,0,0,1,625,785) translate(39.673456790123474 61.219444444444434)"/><path d="M861 900h77M861.03 900H860" stroke="#000" stroke-width="2" fill="none"/><path d="M939 901h-1.03v-2H939z" stroke="#000" stroke-width=".05"/><path d="M782 840h77" stroke="#000" stroke-width="2" fill="none"/><path d="M782.03 841H781v-2h1.03z" stroke="#000" stroke-width=".05"/><path d="M858.97 840H860" stroke="#000" stroke-width="2" fill="none"/><path d="M100 1320h1520v560H100z" stroke="#000" stroke-width="2" fill="#83bbe5" fill-opacity=".33"/><path d="M1419 1680h160v120h-160z" stroke="#000" stroke-width="2" fill="#fff"/><use xlink:href="#t" transform="matrix(1,0,0,1,1424,1685) translate(40.652160493827175 61.219444444444434)"/><path d="M1362 1740h37.5" stroke="#000" stroke-width="2" fill="none"/><path d="M1362.03 1741H1361v-2h1.03z" stroke="#000" stroke-width=".05"/><path d="M1414.76 1740l-14.26 4.64v-9.28z" stroke="#000" stroke-width="2"/><path d="M1581 1740h238.5" stroke="#000" stroke-width="2" fill="none"/><path d="M1581.03 1741H1580v-2h1.03z" stroke="#000" stroke-width=".05"/><path d="M1834.76 1740l-14.26 4.64v-9.28z" stroke="#000" stroke-width="2"/><path d="M1200 1680h160v120h-160z" stroke="#000" stroke-width="2" fill="#fff"/><use xlink:href="#u" transform="matrix(1,0,0,1,1205,1685) translate(25.7385802469136 61.219444444444434)"/><path d="M980 1680h160v120H980z" stroke="#000" stroke-width="2" fill="#fff"/><use xlink:href="#v" transform="matrix(1,0,0,1,985,1685) translate(25.645370370370387 61.219444444444434)"/><path d="M1142 1740h38.5" stroke="#000" stroke-width="2" fill="none"/><path d="M1142.03 1741H1141v-2h1.03z" stroke="#000" stroke-width=".05"/><path d="M1195.76 1740l-14.26 4.64v-9.28z" stroke="#000" stroke-width="2"/><path d="M760 1680h160v120H760z" stroke="#000" stroke-width="2" fill="#fff"/><use xlink:href="#w" transform="matrix(1,0,0,1,765,1685) translate(38.694753086419766 61.219444444444434)"/><path d="M922 1740h38.5" stroke="#000" stroke-width="2" fill="none"/><path d="M922.03 1741H921v-2h1.03z" stroke="#000" stroke-width=".05"/><path d="M975.76 1740l-14.26 4.64v-9.28z" stroke="#000" stroke-width="2"/><path d="M540 1680h160v120H540z" stroke="#000" stroke-width="2" fill="#fff"/><use xlink:href="#x" transform="matrix(1,0,0,1,545,1685) translate(47.08364197530865 61.219444444444434)"/><path d="M702 1740h38.5" stroke="#000" stroke-width="2" fill="none"/><path d="M702.03 1741H701v-2h1.03z" stroke="#000" stroke-width=".05"/><path d="M755.76 1740l-14.26 4.64v-9.28z" stroke="#000" stroke-width="2"/><path d="M360 1360h160v120H360z" stroke="#000" stroke-width="2" fill="#fff"/><use xlink:href="#y" transform="matrix(1,0,0,1,365,1365) translate(43.401851851851866 61.219444444444434)"/><path d="M140 1354.6h160v130.8H140z" stroke="#000" stroke-width="2" fill="#fff"/><use xlink:href="#z" transform="matrix(1,0,0,1,145,1359.6) translate(42.42314814814816 26.844444444444434)"/><use xlink:href="#A" transform="matrix(1,0,0,1,145,1359.6) translate(36.83055555555557 67.11111111111109)"/><use xlink:href="#B" transform="matrix(1,0,0,1,145,1359.6) translate(38.78796296296298 107.37777777777774)"/><path d="M302 1420h38.5" stroke="#000" stroke-width="2" fill="none"/><path d="M302.03 1421H301v-2h1.03z" stroke="#000" stroke-width=".05"/><path d="M355.76 1420l-14.26 4.64v-9.28z" stroke="#000" stroke-width="2"/><path d="M140 1554.6h160v130.8H140z" stroke="#000" stroke-width="2" fill="#fff"/><use xlink:href="#C" transform="matrix(1,0,0,1,145,1559.6) translate(47.08364197530865 26.844444444444434)"/><use xlink:href="#A" transform="matrix(1,0,0,1,145,1559.6) translate(36.83055555555557 67.11111111111109)"/><use xlink:href="#B" transform="matrix(1,0,0,1,145,1559.6) translate(38.78796296296298 107.37777777777774)"/><path d="M664.2 1421v239.5M664.2 1421.03V1420" stroke="#000" stroke-width="2" fill="none"/><path d="M664.2 1675.76l-4.63-14.26h9.27z" stroke="#000" stroke-width="2"/><path d="M840 1660.5V1421" stroke="#000" stroke-width="2" fill="none"/><path d="M840 1675.76l-4.64-14.26h9.28z" stroke="#000" stroke-width="2"/><path d="M840 1421.03V1420M1499 1660.5V1420H522" stroke="#000" stroke-width="2" fill="none"/><path d="M1499 1675.76l-4.64-14.26h9.28z" stroke="#000" stroke-width="2"/><path d="M522.03 1421H521v-2h1.03z" stroke="#000" stroke-width=".05"/><path d="M302 1620h278.23v40.5" stroke="#000" stroke-width="2" fill="none"/><path d="M302.03 1621H301v-2h1.03z" stroke="#000" stroke-width=".05"/><path d="M580.23 1675.76l-4.64-14.26h9.26z" stroke="#000" stroke-width="2"/><path d="M778 1060H220v275.1" stroke="#000" stroke-width="2" fill="none"/><path d="M779 1061h-1.03v-2H779z" stroke="#000" stroke-width=".05"/><path d="M220 1350.36l-4.64-14.26h9.28z" stroke="#000" stroke-width="2"/><path d="M220 1487.4v47.7" stroke="#000" stroke-width="2" fill="none"/><path d="M221 1487.43h-2v-1.03h2z" stroke="#000" stroke-width=".05"/><path d="M220 1550.36l-4.64-14.26h9.28z" stroke="#000" stroke-width="2"/><path d="M1680 1698.22h100v43.56h-100z" stroke="#000" stroke-opacity="0" stroke-width="2" fill="#fff" fill-opacity="0"/><use xlink:href="#D" transform="matrix(1,0,0,1,1685,1703.2222222222222) translate(-25.478135850694414 27.060112847222218)"/><path d="M520.5 1740H-159" stroke="#000" stroke-width="2" fill="none"/><path d="M535.76 1740l-14.26 4.64v-9.28z" stroke="#000" stroke-width="2"/><path d="M-158.97 1740H-160" stroke="#000" stroke-width="2" fill="none"/><path d="M-120 1698.22h100v43.56h-100z" stroke="#000" stroke-opacity="0" stroke-width="2" fill="#fff" fill-opacity="0"/><use xlink:href="#E" transform="matrix(1,0,0,1,-115,1703.2222222222222) translate(-15.409830729166636 27.060112847222218)"/><path d="M80.5 1800H-159" stroke="#000" stroke-width="2" fill="none"/><path d="M95.76 1800l-14.26 4.64v-9.28z" stroke="#000" stroke-width="2"/><path d="M-158.97 1800H-160M80.5 1860H-159" stroke="#000" stroke-width="2" fill="none"/><path d="M95.76 1860l-14.26 4.64v-9.28z" stroke="#000" stroke-width="2"/><path d="M-158.97 1860H-160" stroke="#000" stroke-width="2" fill="none"/><path d="M-80 1758.22H20v43.56H-80z" stroke="#000" stroke-opacity="0" stroke-width="2" fill="#fff" fill-opacity="0"/><use xlink:href="#F" transform="matrix(1,0,0,1,-75,1763.2222222222222) translate(-55.68305121527773 27.060112847222218)"/><path d="M-80 1818.22H20v43.56H-80z" stroke="#000" stroke-opacity="0" stroke-width="2" fill="#fff" fill-opacity="0"/><use xlink:href="#G" transform="matrix(1,0,0,1,-75,1823.2222222222222) translate(-55.68305121527773 27.060112847222218)"/><path d="M540.5 1140H301" stroke="#000" stroke-width="2" fill="none"/><path d="M555.76 1140l-14.26 4.64v-9.28z" stroke="#000" stroke-width="2"/><path d="M301.03 1140H300" stroke="#000" stroke-width="2" fill="none"/><path d="M380 1098.22h100v43.56H380z" stroke="#000" stroke-opacity="0" stroke-width="2" fill="#fff" fill-opacity="0"/><g><use xlink:href="#H" transform="matrix(1,0,0,1,385,1103.2222222222222) translate(-55.68305121527773 27.060112847222218)"/></g><defs><path d="M197 0v-115H63V0H30v-248h33v105h134v-105h34V0h-34" id="I"/><path d="M205 0l-28-72H64L36 0H1l101-248h38L239 0h-34zm-38-99l-47-123c-12 45-31 82-46 123h93" id="J"/><path d="M233-177c-1 41-23 64-60 70L243 0h-38l-65-103H63V0H30v-248c88 3 205-21 203 71zM63-129c60-2 137 13 137-47 0-61-80-42-137-45v92" id="K"/><path d="M127-220V0H93v-220H8v-28h204v28h-85" id="L"/><g id="a"><use transform="matrix(0.09320987654320984,0,0,0.09320987654320984,0,0)" xlink:href="#I"/><use transform="matrix(0.09320987654320984,0,0,0.09320987654320984,24.141358024691346,0)" xlink:href="#J"/><use transform="matrix(0.09320987654320984,0,0,0.09320987654320984,46.51172839506171,0)" xlink:href="#K"/><use transform="matrix(0.09320987654320984,0,0,0.09320987654320984,70.00061728395059,0)" xlink:href="#L"/></g><path d="M140-251c81 0 123 46 123 126C263-46 219 4 140 4 59 4 17-45 17-125s42-126 123-126zm0 227c63 0 89-41 89-101s-29-99-89-99c-61 0-89 39-89 99S79-25 140-24" id="M"/><path d="M240 0l2-218c-23 76-54 145-80 218h-23L58-218 59 0H30v-248h44l77 211c21-75 51-140 76-211h43V0h-30" id="N"/><g id="b"><use transform="matrix(0.09320987654320984,0,0,0.09320987654320984,0,0)" xlink:href="#K"/><use transform="matrix(0.09320987654320984,0,0,0.09320987654320984,24.141358024691346,0)" xlink:href="#M"/><use transform="matrix(0.09320987654320984,0,0,0.09320987654320984,50.2401234567901,0)" xlink:href="#N"/></g><g id="c"><use transform="matrix(0.09320987654320984,0,0,0.09320987654320984,0,0)" xlink:href="#K"/><use transform="matrix(0.09320987654320984,0,0,0.09320987654320984,24.141358024691346,0)" xlink:href="#J"/><use transform="matrix(0.09320987654320984,0,0,0.09320987654320984,46.51172839506171,0)" xlink:href="#N"/></g><path d="M30-248c87 1 191-15 191 75 0 78-77 80-158 76V0H30v-248zm33 125c57 0 124 11 124-50 0-59-68-47-124-48v98" id="O"/><path d="M33 0v-248h34V0H33" id="P"/><g id="d"><use transform="matrix(0.09320987654320984,0,0,0.09320987654320984,0,0)" xlink:href="#O"/><use transform="matrix(0.09320987654320984,0,0,0.09320987654320984,22.37037037037036,0)" xlink:href="#P"/><use transform="matrix(0.09320987654320984,0,0,0.09320987654320984,31.691358024691343,0)" xlink:href="#M"/></g><g id="e"><use transform="matrix(0.09320987654320984,0,0,0.09320987654320984,0,0)" xlink:href="#L"/><use transform="matrix(0.09320987654320984,0,0,0.09320987654320984,20.412962962962954,0)" xlink:href="#N"/><use transform="matrix(0.09320987654320984,0,0,0.09320987654320984,48.28271604938269,0)" xlink:href="#K"/></g><path d="M185-189c-5-48-123-54-124 2 14 75 158 14 163 119 3 78-121 87-175 55-17-10-28-26-33-46l33-7c5 56 141 63 141-1 0-78-155-14-162-118-5-82 145-84 179-34 5 7 8 16 11 25" id="Q"/><path d="M143 4C61 4 22-44 18-125c-5-107 100-154 193-111 17 8 29 25 37 43l-32 9c-13-25-37-40-76-40-61 0-88 39-88 99 0 61 29 100 91 101 35 0 62-11 79-27v-45h-74v-28h105v86C228-13 192 4 143 4" id="R"/><g id="f"><use transform="matrix(0.09320987654320984,0,0,0.09320987654320984,0,0)" xlink:href="#N"/><use transform="matrix(0.09320987654320984,0,0,0.09320987654320984,27.869753086419742,0)" xlink:href="#Q"/><use transform="matrix(0.09320987654320984,0,0,0.09320987654320984,50.2401234567901,0)" xlink:href="#R"/></g><path d="M140-251c81 0 123 46 123 126C263-53 228-8 163 1c7 30 30 48 69 40v23c-55 16-95-15-103-61C56-3 17-48 17-125c0-80 42-126 123-126zm0 227c63 0 89-41 89-101s-29-99-89-99c-61 0-89 39-89 99S79-25 140-24" id="S"/><g id="g"><use transform="matrix(0.09320987654320984,0,0,0.09320987654320984,0,0)" xlink:href="#P"/><use transform="matrix(0.09320987654320984,0,0,0.09320987654320984,9.320987654320984,0)" xlink:href="#K"/><use transform="matrix(0.09320987654320984,0,0,0.09320987654320984,33.46234567901233,0)" xlink:href="#S"/></g><path d="M30 0v-248h187v28H63v79h144v27H63v87h162V0H30" id="T"/><path d="M195 0l-74-108L45 0H8l94-129-87-119h37l69 98 67-98h37l-84 118L233 0h-38" id="U"/><path d="M212-179c-10-28-35-45-73-45-59 0-87 40-87 99 0 60 29 101 89 101 43 0 62-24 78-52l27 14C228-24 195 4 139 4 59 4 22-46 18-125c-6-104 99-153 187-111 19 9 31 26 39 46" id="V"/><g id="h"><use transform="matrix(0.09320987654320984,0,0,0.09320987654320984,0,0)" xlink:href="#T"/><use transform="matrix(0.09320987654320984,0,0,0.09320987654320984,22.37037037037036,0)" xlink:href="#U"/><use transform="matrix(0.09320987654320984,0,0,0.09320987654320984,44.74074074074072,0)" xlink:href="#V"/><use transform="matrix(0.09320987654320984,0,0,0.09320987654320984,68.88209876543206,0)" xlink:href="#I"/></g><path d="M1121-976c0 225-142 341-344 379L1177 0H957L591-575H353V0H162v-1349h482c281 3 477 100 477 373zM633-726c181-1 296-73 296-247 0-149-101-223-304-223H353v470h280" id="W"/><path d="M102-681c0-398 126-689 513-689 165 0 291 58 379 174s132 287 132 515c-1 318-88 554-298 657-123 61-317 58-438-3-206-104-288-341-288-654zm749 406c94-160 97-656-5-807-57-85-130-132-231-132-104 0-178 47-234 132-101 153-99 655 1 809 57 89 130 138 232 138 109 0 184-49 237-140" id="X"/><path d="M285-1169c8 382 2 780 4 1169H129v-1349h237c86 239 188 461 253 720 69-258 169-481 255-720h225V0H937c2-390-5-788 6-1169-75 255-170 488-259 729H547c-90-240-185-475-262-729" id="Y"/><path d="M-5 220v-96h1238v96H-5" id="Z"/><path d="M202-1349h823v156H709v1037h316V0H202v-156h316v-1037H202v-156" id="aa"/><path d="M385-1193v494h676v158H385V0H194v-1349h891v156H385" id="ab"/><g id="i"><use transform="matrix(0.016384548611111105,0,0,0.016384548611111105,0,0)" xlink:href="#W"/><use transform="matrix(0.016384548611111105,0,0,0.016384548611111105,20.136610243055546,0)" xlink:href="#X"/><use transform="matrix(0.016384548611111105,0,0,0.016384548611111105,40.27322048611109,0)" xlink:href="#Y"/><use transform="matrix(0.016384548611111105,0,0,0.016384548611111105,60.40983072916664,0)" xlink:href="#Z"/><use transform="matrix(0.016384548611111105,0,0,0.016384548611111105,80.54644097222219,0)" xlink:href="#aa"/><use transform="matrix(0.016384548611111105,0,0,0.016384548611111105,100.68305121527773,0)" xlink:href="#ab"/></g><path d="M1034 0L896-382H333L196 0H0l510-1349h217L1228 0h-194zM847-531c-77-225-157-447-231-674-69 231-154 451-232 674h463" id="ac"/><g id="j"><use transform="matrix(0.016384548611111105,0,0,0.016384548611111105,0,0)" xlink:href="#W"/><use transform="matrix(0.016384548611111105,0,0,0.016384548611111105,20.136610243055546,0)" xlink:href="#ac"/><use transform="matrix(0.016384548611111105,0,0,0.016384548611111105,40.27322048611109,0)" xlink:href="#Y"/><use transform="matrix(0.016384548611111105,0,0,0.016384548611111105,60.40983072916664,0)" xlink:href="#Z"/><use transform="matrix(0.016384548611111105,0,0,0.016384548611111105,80.54644097222219,0)" xlink:href="#aa"/><use transform="matrix(0.016384548611111105,0,0,0.016384548611111105,100.68305121527773,0)" xlink:href="#ab"/></g><path d="M622-1349c296 4 497 117 497 404 0 282-193 424-485 431H353V0H162v-1349h460zm-15 684c195-3 320-88 320-277 0-184-129-255-328-254H353v531h254" id="ad"/><path d="M709-1193V0H519v-1193H76v-156h1076v156H709" id="ae"/><g id="k"><use transform="matrix(0.02072482638888887,0,0,0.02072482638888887,0,0)" xlink:href="#ad"/><use transform="matrix(0.02072482638888887,0,0,0.02072482638888887,25.47081163194442,0)" xlink:href="#Y"/><use transform="matrix(0.02072482638888887,0,0,0.02072482638888887,50.94162326388884,0)" xlink:href="#Z"/><use transform="matrix(0.02072482638888887,0,0,0.02072482638888887,76.41243489583326,0)" xlink:href="#ae"/><use transform="matrix(0.02072482638888887,0,0,0.02072482638888887,101.88324652777769,0)" xlink:href="#X"/><use transform="matrix(0.02072482638888887,0,0,0.02072482638888887,127.35405815972211,0)" xlink:href="#ad"/></g><path d="M237 0v-1349h191v1193h672V0H237" id="af"/><path d="M912-211c-10-84-18-177-18-274v-864h172V0H836L316-1130c7 79 16 167 16 254V0H162v-1349h222" id="ag"/><path d="M1003 0L516-638 353-469V0H162v-1349h191v673l572-673h225L646-777 1227 0h-224" id="ah"/><g id="l"><use transform="matrix(0.02072482638888887,0,0,0.02072482638888887,0,0)" xlink:href="#af"/><use transform="matrix(0.02072482638888887,0,0,0.02072482638888887,25.47081163194442,0)" xlink:href="#ag"/><use transform="matrix(0.02072482638888887,0,0,0.02072482638888887,50.94162326388884,0)" xlink:href="#ah"/><use transform="matrix(0.02072482638888887,0,0,0.02072482638888887,76.41243489583326,0)" xlink:href="#Z"/><use transform="matrix(0.02072482638888887,0,0,0.02072482638888887,101.88324652777769,0)" xlink:href="#ae"/><use transform="matrix(0.02072482638888887,0,0,0.02072482638888887,127.35405815972211,0)" xlink:href="#X"/><use transform="matrix(0.02072482638888887,0,0,0.02072482638888887,152.82486979166654,0)" xlink:href="#ad"/></g><path d="M875 0v-623H353V0H162v-1349h191v566h522v-566h191V0H875" id="ai"/><path d="M614-1226c-167 1-283 53-283 213 0 183 186 193 334 234 230 63 463 120 463 409 0 286-219 387-518 390C309 23 131-98 79-338l185-37c34 165 149 248 351 246 184-2 324-58 324-238 0-203-207-221-372-266-210-57-422-111-422-377 0-267 201-356 470-360 279-5 430 101 480 324l-188 33c-28-141-121-215-293-213" id="aj"/><g id="m"><use transform="matrix(0.016384548611111105,0,0,0.016384548611111105,0,0)" xlink:href="#ai"/><use transform="matrix(0.016384548611111105,0,0,0.016384548611111105,20.136610243055546,0)" xlink:href="#X"/><use transform="matrix(0.016384548611111105,0,0,0.016384548611111105,40.27322048611109,0)" xlink:href="#aj"/><use transform="matrix(0.016384548611111105,0,0,0.016384548611111105,60.40983072916664,0)" xlink:href="#ae"/><use transform="matrix(0.016384548611111105,0,0,0.016384548611111105,80.54644097222219,0)" xlink:href="#Z"/><use transform="matrix(0.016384548611111105,0,0,0.016384548611111105,100.68305121527773,0)" xlink:href="#aa"/><use transform="matrix(0.016384548611111105,0,0,0.016384548611111105,120.81966145833327,0)" xlink:href="#ab"/></g><path d="M473-1349c438-1 655 221 652 661C1122-268 945-8 532 0H162v-1349h311zm42 1193c308-4 416-205 418-532 2-330-131-509-459-505H353v1037h162" id="ak"/><g id="n"><use transform="matrix(0.016384548611111105,0,0,0.016384548611111105,0,0)" xlink:href="#ai"/><use transform="matrix(0.016384548611111105,0,0,0.016384548611111105,20.136610243055546,0)" xlink:href="#ad"/><use transform="matrix(0.016384548611111105,0,0,0.016384548611111105,40.27322048611109,0)" xlink:href="#ak"/><use transform="matrix(0.016384548611111105,0,0,0.016384548611111105,60.40983072916664,0)" xlink:href="#Z"/><use transform="matrix(0.016384548611111105,0,0,0.016384548611111105,80.54644097222219,0)" xlink:href="#aa"/><use transform="matrix(0.016384548611111105,0,0,0.016384548611111105,100.68305121527773,0)" xlink:href="#ag"/></g><path d="M604-135c236 0 291-142 291-376v-838h190v859c5 340-142 510-480 510-326 0-463-164-463-492v-877h191v851c-3 222 46 363 271 363" id="al"/><path d="M614-836l333-513h205L717-705 1193 0H988L614-573 241 0H36l476-705-435-644h205" id="am"/><g id="o"><use transform="matrix(0.016384548611111105,0,0,0.016384548611111105,0,0)" xlink:href="#ac"/><use transform="matrix(0.016384548611111105,0,0,0.016384548611111105,20.136610243055546,0)" xlink:href="#al"/><use transform="matrix(0.016384548611111105,0,0,0.016384548611111105,40.27322048611109,0)" xlink:href="#am"/><use transform="matrix(0.016384548611111105,0,0,0.016384548611111105,60.40983072916664,0)" xlink:href="#Z"/><use transform="matrix(0.016384548611111105,0,0,0.016384548611111105,80.54644097222219,0)" xlink:href="#W"/><use transform="matrix(0.016384548611111105,0,0,0.016384548611111105,100.68305121527773,0)" xlink:href="#am"/><use transform="matrix(0.016384548611111105,0,0,0.016384548611111105,120.81966145833327,0)" xlink:href="#Z"/><use transform="matrix(0.016384548611111105,0,0,0.016384548611111105,140.95627170138883,0)" xlink:href="#aa"/><use transform="matrix(0.016384548611111105,0,0,0.016384548611111105,161.09288194444437,0)" xlink:href="#ag"/></g><g id="p"><use transform="matrix(0.016384548611111105,0,0,0.016384548611111105,0,0)" xlink:href="#ac"/><use transform="matrix(0.016384548611111105,0,0,0.016384548611111105,20.136610243055546,0)" xlink:href="#al"/><use transform="matrix(0.016384548611111105,0,0,0.016384548611111105,40.27322048611109,0)" xlink:href="#am"/><use transform="matrix(0.016384548611111105,0,0,0.016384548611111105,60.40983072916664,0)" xlink:href="#Z"/><use transform="matrix(0.016384548611111105,0,0,0.016384548611111105,80.54644097222219,0)" xlink:href="#ae"/><use transform="matrix(0.016384548611111105,0,0,0.016384548611111105,100.68305121527773,0)" xlink:href="#am"/><use transform="matrix(0.016384548611111105,0,0,0.016384548611111105,120.81966145833327,0)" xlink:href="#Z"/><use transform="matrix(0.016384548611111105,0,0,0.016384548611111105,140.95627170138883,0)" xlink:href="#X"/><use transform="matrix(0.016384548611111105,0,0,0.016384548611111105,161.09288194444437,0)" xlink:href="#al"/><use transform="matrix(0.016384548611111105,0,0,0.016384548611111105,181.22949218749991,0)" xlink:href="#ae"/></g><path d="M162 0v-1349h919v156H353v422h668v154H353v461h769V0H162" id="an"/><g id="q"><use transform="matrix(0.016384548611111105,0,0,0.016384548611111105,0,0)" xlink:href="#ac"/><use transform="matrix(0.016384548611111105,0,0,0.016384548611111105,20.136610243055546,0)" xlink:href="#al"/><use transform="matrix(0.016384548611111105,0,0,0.016384548611111105,40.27322048611109,0)" xlink:href="#am"/><use transform="matrix(0.016384548611111105,0,0,0.016384548611111105,60.40983072916664,0)" xlink:href="#Z"/><use transform="matrix(0.016384548611111105,0,0,0.016384548611111105,80.54644097222219,0)" xlink:href="#an"/><use transform="matrix(0.016384548611111105,0,0,0.016384548611111105,100.68305121527773,0)" xlink:href="#ag"/><use transform="matrix(0.016384548611111105,0,0,0.016384548611111105,120.81966145833327,0)" xlink:href="#Z"/><use transform="matrix(0.016384548611111105,0,0,0.016384548611111105,140.95627170138883,0)" xlink:href="#X"/><use transform="matrix(0.016384548611111105,0,0,0.016384548611111105,161.09288194444437,0)" xlink:href="#al"/><use transform="matrix(0.016384548611111105,0,0,0.016384548611111105,181.22949218749991,0)" xlink:href="#ae"/></g><path d="M232-93c-1 65-40 97-104 97C67 4 28-28 28-90v-158h33c8 89-33 224 67 224 102 0 64-133 71-224h33v155" id="ao"/><g id="r"><use transform="matrix(0.09320987654320984,0,0,0.09320987654320984,0,0)" xlink:href="#J"/><use transform="matrix(0.09320987654320984,0,0,0.09320987654320984,22.37037037037036,0)" xlink:href="#ao"/><use transform="matrix(0.09320987654320984,0,0,0.09320987654320984,46.51172839506171,0)" xlink:href="#U"/></g><path d="M30-248c118-7 216 8 213 122C240-48 200 0 122 0H30v-248zM63-27c89 8 146-16 146-99s-60-101-146-95v194" id="ap"/><g id="s"><use transform="matrix(0.09320987654320984,0,0,0.09320987654320984,0,0)" xlink:href="#I"/><use transform="matrix(0.09320987654320984,0,0,0.09320987654320984,24.141358024691346,0)" xlink:href="#O"/><use transform="matrix(0.09320987654320984,0,0,0.09320987654320984,46.51172839506171,0)" xlink:href="#ap"/></g><path d="M190 0L58-211 59 0H30v-248h39L202-35l-2-213h31V0h-41" id="aq"/><g id="t"><use transform="matrix(0.09320987654320984,0,0,0.09320987654320984,0,0)" xlink:href="#L"/><use transform="matrix(0.09320987654320984,0,0,0.09320987654320984,20.412962962962954,0)" xlink:href="#K"/><use transform="matrix(0.09320987654320984,0,0,0.09320987654320984,44.5543209876543,0)" xlink:href="#aq"/></g><g id="u"><use transform="matrix(0.09320987654320984,0,0,0.09320987654320984,0,0)" xlink:href="#Q"/><use transform="matrix(0.09320987654320984,0,0,0.09320987654320984,22.37037037037036,0)" xlink:href="#V"/><use transform="matrix(0.09320987654320984,0,0,0.09320987654320984,46.51172839506171,0)" xlink:href="#K"/><use transform="matrix(0.09320987654320984,0,0,0.09320987654320984,70.65308641975305,0)" xlink:href="#N"/></g><path d="M194 0L95-120 63-95V0H30v-248h33v124l119-124h40L117-140 236 0h-42" id="ar"/><path d="M266 0h-40l-56-210L115 0H75L2-248h35L96-30l15-64 43-154h32l59 218 59-218h35" id="as"/><g id="v"><use transform="matrix(0.09320987654320984,0,0,0.09320987654320984,0,0)" xlink:href="#Q"/><use transform="matrix(0.09320987654320984,0,0,0.09320987654320984,22.37037037037036,0)" xlink:href="#ar"/><use transform="matrix(0.09320987654320984,0,0,0.09320987654320984,44.74074074074072,0)" xlink:href="#T"/><use transform="matrix(0.09320987654320984,0,0,0.09320987654320984,67.11111111111109,0)" xlink:href="#as"/></g><g id="w"><use transform="matrix(0.09320987654320984,0,0,0.09320987654320984,0,0)" xlink:href="#N"/><use transform="matrix(0.09320987654320984,0,0,0.09320987654320984,27.869753086419742,0)" xlink:href="#Q"/><use transform="matrix(0.09320987654320984,0,0,0.09320987654320984,50.2401234567901,0)" xlink:href="#J"/></g><path d="M137 0h-34L2-248h35l83 218 83-218h36" id="at"/><g id="x"><use transform="matrix(0.09320987654320984,0,0,0.09320987654320984,0,0)" xlink:href="#at"/><use transform="matrix(0.09320987654320984,0,0,0.09320987654320984,22.37037037037036,0)" xlink:href="#P"/><use transform="matrix(0.09320987654320984,0,0,0.09320987654320984,31.691358024691343,0)" xlink:href="#ap"/></g><path d="M30 0v-248h33v221h125V0H30" id="au"/><g id="y"><use transform="matrix(0.09320987654320984,0,0,0.09320987654320984,0,0)" xlink:href="#V"/><use transform="matrix(0.09320987654320984,0,0,0.09320987654320984,24.141358024691346,0)" xlink:href="#L"/><use transform="matrix(0.09320987654320984,0,0,0.09320987654320984,44.5543209876543,0)" xlink:href="#au"/></g><g id="z"><use transform="matrix(0.09320987654320984,0,0,0.09320987654320984,0,0)" xlink:href="#au"/><use transform="matrix(0.09320987654320984,0,0,0.09320987654320984,18.641975308641968,0)" xlink:href="#aq"/><use transform="matrix(0.09320987654320984,0,0,0.09320987654320984,42.78333333333332,0)" xlink:href="#ar"/></g><g id="A"><use transform="matrix(0.09320987654320984,0,0,0.09320987654320984,0,0)" xlink:href="#N"/><use transform="matrix(0.09320987654320984,0,0,0.09320987654320984,27.869753086419742,0)" xlink:href="#Q"/><use transform="matrix(0.09320987654320984,0,0,0.09320987654320984,50.2401234567901,0)" xlink:href="#R"/></g><g id="B"><use transform="matrix(0.09320987654320984,0,0,0.09320987654320984,0,0)" xlink:href="#V"/><use transform="matrix(0.09320987654320984,0,0,0.09320987654320984,24.141358024691346,0)" xlink:href="#ap"/><use transform="matrix(0.09320987654320984,0,0,0.09320987654320984,48.28271604938269,0)" xlink:href="#V"/></g><g id="C"><use transform="matrix(0.09320987654320984,0,0,0.09320987654320984,0,0)" xlink:href="#at"/><use transform="matrix(0.09320987654320984,0,0,0.09320987654320984,22.37037037037036,0)" xlink:href="#P"/><use transform="matrix(0.09320987654320984,0,0,0.09320987654320984,31.691358024691343,0)" xlink:href="#ap"/></g><g id="D"><use transform="matrix(0.016384548611111105,0,0,0.016384548611111105,0,0)" xlink:href="#af"/><use transform="matrix(0.016384548611111105,0,0,0.016384548611111105,20.136610243055546,0)" xlink:href="#ag"/><use transform="matrix(0.016384548611111105,0,0,0.016384548611111105,40.27322048611109,0)" xlink:href="#ah"/><use transform="matrix(0.016384548611111105,0,0,0.016384548611111105,60.40983072916664,0)" xlink:href="#Z"/><use transform="matrix(0.016384548611111105,0,0,0.016384548611111105,80.54644097222219,0)" xlink:href="#X"/><use transform="matrix(0.016384548611111105,0,0,0.016384548611111105,100.68305121527773,0)" xlink:href="#al"/><use transform="matrix(0.016384548611111105,0,0,0.016384548611111105,120.81966145833327,0)" xlink:href="#ae"/></g><path d="M713 0H515L10-1349h201C345-955 498-579 615-168c116-411 269-787 402-1181h201" id="av"/><g id="E"><use transform="matrix(0.016384548611111105,0,0,0.016384548611111105,0,0)" xlink:href="#av"/><use transform="matrix(0.016384548611111105,0,0,0.016384548611111105,20.136610243055546,0)" xlink:href="#aa"/><use transform="matrix(0.016384548611111105,0,0,0.016384548611111105,40.27322048611109,0)" xlink:href="#ak"/><use transform="matrix(0.016384548611111105,0,0,0.016384548611111105,60.40983072916664,0)" xlink:href="#Z"/><use transform="matrix(0.016384548611111105,0,0,0.016384548611111105,80.54644097222219,0)" xlink:href="#aa"/><use transform="matrix(0.016384548611111105,0,0,0.016384548611111105,100.68305121527773,0)" xlink:href="#ag"/></g><path d="M650-1214c-281 0-336 244-336 533 0 295 60 546 347 546 188 0 263-142 322-282l159 65C1058-155 935 20 659 20c-401 0-546-295-546-701 0-407 135-689 536-689 264 0 391 146 466 335l-168 65c-47-129-127-244-297-244" id="aw"/><g id="F"><use transform="matrix(0.016384548611111105,0,0,0.016384548611111105,0,0)" xlink:href="#af"/><use transform="matrix(0.016384548611111105,0,0,0.016384548611111105,20.136610243055546,0)" xlink:href="#ag"/><use transform="matrix(0.016384548611111105,0,0,0.016384548611111105,40.27322048611109,0)" xlink:href="#ah"/><use transform="matrix(0.016384548611111105,0,0,0.016384548611111105,60.40983072916664,0)" xlink:href="#Z"/><use transform="matrix(0.016384548611111105,0,0,0.016384548611111105,80.54644097222219,0)" xlink:href="#aw"/><use transform="matrix(0.016384548611111105,0,0,0.016384548611111105,100.68305121527773,0)" xlink:href="#af"/><use transform="matrix(0.016384548611111105,0,0,0.016384548611111105,120.81966145833327,0)" xlink:href="#ah"/><use transform="matrix(0.016384548611111105,0,0,0.016384548611111105,140.95627170138883,0)" xlink:href="#Z"/><use transform="matrix(0.016384548611111105,0,0,0.016384548611111105,161.09288194444437,0)" xlink:href="#aa"/><use transform="matrix(0.016384548611111105,0,0,0.016384548611111105,181.22949218749991,0)" xlink:href="#ag"/></g><g id="G"><use transform="matrix(0.016384548611111105,0,0,0.016384548611111105,0,0)" xlink:href="#av"/><use transform="matrix(0.016384548611111105,0,0,0.016384548611111105,20.136610243055546,0)" xlink:href="#aa"/><use transform="matrix(0.016384548611111105,0,0,0.016384548611111105,40.27322048611109,0)" xlink:href="#ak"/><use transform="matrix(0.016384548611111105,0,0,0.016384548611111105,60.40983072916664,0)" xlink:href="#Z"/><use transform="matrix(0.016384548611111105,0,0,0.016384548611111105,80.54644097222219,0)" xlink:href="#aw"/><use transform="matrix(0.016384548611111105,0,0,0.016384548611111105,100.68305121527773,0)" xlink:href="#af"/><use transform="matrix(0.016384548611111105,0,0,0.016384548611111105,120.81966145833327,0)" xlink:href="#ah"/><use transform="matrix(0.016384548611111105,0,0,0.016384548611111105,140.95627170138883,0)" xlink:href="#Z"/><use transform="matrix(0.016384548611111105,0,0,0.016384548611111105,161.09288194444437,0)" xlink:href="#aa"/><use transform="matrix(0.016384548611111105,0,0,0.016384548611111105,181.22949218749991,0)" xlink:href="#ag"/></g><path d="M708-584V0H520v-584L36-1349h205l374 611 372-611h205" id="ax"/><g id="H"><use transform="matrix(0.016384548611111105,0,0,0.016384548611111105,0,0)" xlink:href="#aj"/><use transform="matrix(0.016384548611111105,0,0,0.016384548611111105,20.136610243055546,0)" xlink:href="#ax"/><use transform="matrix(0.016384548611111105,0,0,0.016384548611111105,40.27322048611109,0)" xlink:href="#aj"/><use transform="matrix(0.016384548611111105,0,0,0.016384548611111105,60.40983072916664,0)" xlink:href="#Z"/><use transform="matrix(0.016384548611111105,0,0,0.016384548611111105,80.54644097222219,0)" xlink:href="#aw"/><use transform="matrix(0.016384548611111105,0,0,0.016384548611111105,100.68305121527773,0)" xlink:href="#af"/><use transform="matrix(0.016384548611111105,0,0,0.016384548611111105,120.81966145833327,0)" xlink:href="#ah"/><use transform="matrix(0.016384548611111105,0,0,0.016384548611111105,140.95627170138883,0)" xlink:href="#Z"/><use transform="matrix(0.016384548611111105,0,0,0.016384548611111105,161.09288194444437,0)" xlink:href="#aa"/><use transform="matrix(0.016384548611111105,0,0,0.016384548611111105,181.22949218749991,0)" xlink:href="#ag"/></g></defs></g></svg>